<svg width="320" height="348" viewBox="99 65 140 210" fill="none" xmlns="http://www.w3.org/2000/svg">
<g filter="url(#filter0_d_112_7852)">
<path d="M159.889 134.778L132.352 118.522L132.352 85.8456L159.889 102.102L159.889 134.778Z" fill="#E2F2D8"/>
<path d="M159.889 134.778L187.344 119.015L187.344 86.2562L159.889 102.102L159.889 134.778Z" fill="#11806D"/>
<path d="M132.516 85.8457L159.889 70L187.344 86.2562L159.889 102.102L132.516 85.8457Z" fill="#81C898"/>
<path d="M189.065 151.691L216.601 135.353L216.601 102.594L189.065 119.015L189.065 151.691Z" fill="#11806D"/>
<path d="M189.065 151.691L161.61 135.764L161.61 103.087L189.065 119.015L189.065 151.691Z" fill="#E2F2D8"/>
<path d="M216.438 102.677L189.065 86.8309L161.61 103.087L189.065 119.015L216.438 102.677Z" fill="#81C898"/>
<path d="M130.795 151.199L103.258 134.86L103.258 102.184L130.795 118.44L130.795 151.199Z" fill="#E2F2D8"/>
<path d="M130.795 151.199L158.25 135.353L158.25 102.594L130.795 118.44L130.795 151.199Z" fill="#11806D"/>
<path d="M103.34 102.266L130.713 86.3383L158.25 102.594L130.795 118.44L103.34 102.266Z" fill="#81C898"/>
<path d="M159.889 168.851L132.352 152.594L132.352 119.836L159.889 136.092L159.889 168.851Z" fill="#E2F2D8"/>
<path d="M159.889 168.851L187.344 153.005L187.344 120.246L159.889 136.092L159.889 168.851Z" fill="#11806D"/>
<path d="M132.516 119.918L159.889 103.99L187.344 120.246L159.889 136.092L132.516 119.918Z" fill="#81C898"/>
<path d="M217.831 236.01L245.859 219.754L245.859 187.077L217.831 203.333L217.831 236.01Z" fill="#08445F"/>
<path d="M217.831 236.01L190.868 220.246L190.868 187.488L217.831 203.333L217.831 236.01Z" fill="#E2F2D8"/>
<path d="M245.695 187.159L218.322 171.232L190.868 187.488L217.831 203.333L245.695 187.159Z" fill="#9CEF77"/>
<path d="M188.573 253.169L216.601 236.913L216.601 204.154L188.573 220.411L188.573 253.169Z" fill="#08445F"/>
<path d="M188.573 253.169L161.61 237.323L161.61 204.647L188.573 220.411L188.573 253.169Z" fill="#E2F2D8"/>
<path d="M216.438 204.236L189.065 188.391L161.61 204.647L188.573 220.411L216.438 204.236Z" fill="#9CEF77"/>
<path d="M102.029 235.599L74 219.343L74 186.585L102.029 202.923L102.029 235.599Z" fill="#FF9C08"/>
<path d="M102.029 235.599L128.992 219.754L128.992 187.077L102.029 202.923L102.029 235.599Z" fill="#11806D"/>
<path d="M74.082 186.667L101.537 170.821L128.992 187.077L102.029 202.923L74.082 186.667Z" fill="#9CEF77"/>
<path d="M131.204 252.759L103.258 236.502L103.258 203.744L131.204 220L131.204 252.759Z" fill="#FF9C08"/>
<path d="M131.204 252.759L158.25 236.913L158.25 204.154L131.204 220L131.204 252.759Z" fill="#11806D"/>
<path d="M103.34 203.826L130.713 187.898L158.25 204.154L131.204 220L103.34 203.826Z" fill="#9CEF77"/>
<path d="M159.889 270L132.352 253.744L132.352 220.985L159.889 237.241L159.889 270Z" fill="#FF9C08"/>
<path d="M159.889 270L187.344 254.154L187.344 221.478L159.889 237.241L159.889 270Z" fill="#08445F"/>
<path d="M132.516 221.067L159.889 205.222L187.344 221.478L159.889 237.241L132.516 221.067Z" fill="#9CEF77"/>
<path d="M217.831 202.266L245.859 186.01L245.859 153.251L217.831 169.507L217.831 202.266Z" fill="#08445F"/>
<path d="M217.831 202.266L190.868 186.42L190.868 153.744L217.831 169.507L217.831 202.266Z" fill="#E2F2D8"/>
<path d="M245.695 153.333L218.322 137.488L190.868 153.744L217.831 169.507L245.695 153.333Z" fill="#9CEF77"/>
<path d="M188.573 219.425L216.601 203.169L216.601 170.411L188.573 186.667L188.573 219.425Z" fill="#08445F"/>
<path d="M188.573 219.425L161.61 203.58L161.61 170.821L188.573 186.667L188.573 219.425Z" fill="#E2F2D8"/>
<path d="M216.438 170.493L189.065 154.565L161.61 170.821L188.573 186.667L216.438 170.493Z" fill="#9CEF77"/>
<path d="M102.029 201.855L74 185.599L74 152.841L102.029 169.097L102.029 201.855Z" fill="#FF9C08"/>
<path d="M102.029 201.855L128.992 186.01L128.992 153.251L102.029 169.097L102.029 201.855Z" fill="#11806D"/>
<path d="M74.082 152.923L101.537 136.995L128.992 153.251L102.029 169.097L74.082 152.923Z" fill="#9CEF77"/>
<path d="M131.204 218.933L103.258 202.677L103.258 170L131.204 186.256L131.204 218.933Z" fill="#FF9C08"/>
<path d="M131.204 218.933L158.25 203.169L158.25 170.411L131.204 186.256L131.204 218.933Z" fill="#11806D"/>
<path d="M103.34 170.082L130.713 154.154L158.25 170.411L131.204 186.256L103.34 170.082Z" fill="#9CEF77"/>
<path d="M159.889 236.256L132.352 220L132.352 187.241L159.889 203.498L159.889 236.256Z" fill="#FF9C08"/>
<path d="M159.889 236.256L187.344 220.411L187.344 187.652L159.889 203.498L159.889 236.256Z" fill="#08445F"/>
<path d="M132.516 187.324L159.889 171.396L187.344 187.652L159.889 203.498L132.516 187.324Z" fill="#9CEF77"/>
<path d="M217.831 168.522L245.859 152.266L245.859 119.507L217.831 135.764L217.831 168.522Z" fill="#08445F"/>
<path d="M217.831 168.522L190.868 152.676L190.868 119.918L217.831 135.764L217.831 168.522Z" fill="#E2F2D8"/>
<path d="M245.695 119.59L218.322 103.662L190.868 119.918L217.831 135.764L245.695 119.59Z" fill="#81C898"/>
<path d="M188.573 185.599L216.601 169.343L216.601 136.667L188.573 152.923L188.573 185.599Z" fill="#08445F"/>
<path d="M188.573 185.599L161.61 169.836L161.61 137.077L188.573 152.923L188.573 185.599Z" fill="#E2F2D8"/>
<path d="M216.438 136.749L189.065 120.821L161.61 137.077L188.573 152.923L216.438 136.749Z" fill="#81C898"/>
<path d="M102.029 168.03L74 151.773L74 119.097L102.029 135.353L102.029 168.03Z" fill="#FF9C08"/>
<path d="M102.029 168.03L128.992 152.266L128.992 119.507L102.029 135.353L102.029 168.03Z" fill="#11806D"/>
<path d="M74.082 119.179L101.537 103.251L128.992 119.507L102.029 135.353L74.082 119.179Z" fill="#81C898"/>
<path d="M131.204 185.189L103.258 168.933L103.258 136.174L131.204 152.43L131.204 185.189Z" fill="#FF9C08"/>
<path d="M131.204 185.189L158.25 169.343L158.25 136.667L131.204 152.43L131.204 185.189Z" fill="#11806D"/>
<path d="M103.34 136.256L130.713 120.411L158.25 136.667L131.204 152.43L103.34 136.256Z" fill="#81C898"/>
<path d="M159.889 202.43L132.352 186.174L132.352 153.498L159.889 169.754L159.889 202.43Z" fill="#FF9C08"/>
<path d="M159.889 202.43L187.344 186.585L187.344 153.908L159.889 169.754L159.889 202.43Z" fill="#08445F"/>
<path d="M132.516 153.498L159.889 137.652L187.344 153.908L159.889 169.754L132.516 153.498Z" fill="#81C898"/>
</g>
<defs>
<filter id="filter0_d_112_7852" x="0" y="1.52588e-05" width="319.859" height="348" filterUnits="userSpaceOnUse" color-interpolation-filters="sRGB">
<feFlood flood-opacity="0" result="BackgroundImageFix"/>
<feColorMatrix in="SourceAlpha" type="matrix" values="0 0 0 0 0 0 0 0 0 0 0 0 0 0 0 0 0 0 127 0" result="hardAlpha"/>
<feOffset dy="4"/>
<feGaussianBlur stdDeviation="37"/>
<feComposite in2="hardAlpha" operator="out"/>
<feColorMatrix type="matrix" values="0 0 0 0 0.341177 0 0 0 0 0.984314 0 0 0 0 0.945726 0 0 0 0.2 0"/>
<feBlend mode="normal" in2="BackgroundImageFix" result="effect1_dropShadow_112_7852"/>
<feBlend mode="normal" in="SourceGraphic" in2="effect1_dropShadow_112_7852" result="shape"/>
</filter>
</defs>
</svg>
