<svg width="40" height="41" viewBox="0 0 40 41" fill="none" xmlns="http://www.w3.org/2000/svg">
<rect y="0.125" width="40" height="40" rx="2" fill="#ED8225"/>
<g clip-path="url(#clip0_112_7529)">
<path d="M20.1739 14.2941C20.701 14.2941 21.1507 14.4775 21.5231 14.8441C21.8955 15.2108 22.0817 15.652 22.0817 16.1676C22.0817 16.6832 21.8955 17.1215 21.5231 17.4824C21.1507 17.8434 20.701 18.0238 20.1739 18.0238C19.6468 18.0238 19.1971 17.8434 18.8247 17.4824C18.4523 17.1215 18.2661 16.6832 18.2661 16.1676C18.2661 15.652 18.4523 15.2108 18.8247 14.8441C19.1971 14.4775 19.6468 14.2941 20.1739 14.2941ZM20.1739 20.8082C20.827 20.8082 21.4401 20.6879 22.013 20.4473C22.5973 20.1952 23.1044 19.86 23.5341 19.4418C23.9638 19.0236 24.2989 18.5337 24.5395 17.9723C24.7916 17.4108 24.9177 16.8092 24.9177 16.1676C24.9177 15.5259 24.7916 14.9243 24.5395 14.3629C24.2989 13.8014 23.9638 13.3087 23.5341 12.8848C23.1044 12.4608 22.5973 12.1285 22.013 11.8879C21.4401 11.6473 20.827 11.527 20.1739 11.527C19.5208 11.527 18.9078 11.6473 18.3348 11.8879C17.7505 12.1285 17.2434 12.4608 16.8138 12.8848C16.3841 13.3087 16.0489 13.8014 15.8083 14.3629C15.5562 14.9243 15.4302 15.5259 15.4302 16.1676C15.4302 16.8092 15.5562 17.4108 15.8083 17.9723C16.0489 18.5337 16.3841 19.0236 16.8138 19.4418C17.2434 19.86 17.7505 20.1952 18.3348 20.4473C18.9078 20.6879 19.5208 20.8082 20.1739 20.8082ZM22.0473 24.3488C22.5171 24.2457 22.9755 24.1025 23.4223 23.9191C23.8692 23.7358 24.2989 23.5181 24.7114 23.266C25.0322 23.0712 25.2328 22.7962 25.313 22.441C25.3932 22.0858 25.3359 21.7535 25.1411 21.4441C24.9463 21.1348 24.6656 20.94 24.2989 20.8598C23.9322 20.7796 23.5942 20.8368 23.2848 21.0316C22.8036 21.3181 22.2994 21.5358 21.7723 21.6848C21.2453 21.8337 20.7125 21.9082 20.1739 21.9082C19.6354 21.9082 19.1026 21.8337 18.5755 21.6848C18.0484 21.5358 17.55 21.3181 17.0802 21.0316C16.7593 20.8368 16.4156 20.7796 16.0489 20.8598C15.6822 20.94 15.4015 21.1348 15.2067 21.4441C15.0119 21.7535 14.9546 22.0858 15.0348 22.441C15.1151 22.7962 15.3156 23.0712 15.6364 23.266C16.0489 23.5181 16.4815 23.7358 16.9341 23.9191C17.3867 24.1025 17.8479 24.2457 18.3177 24.3488L15.7223 26.8754C15.4588 27.1275 15.3299 27.4368 15.3356 27.8035C15.3414 28.1702 15.476 28.4796 15.7395 28.7316C15.8656 28.8691 16.0117 28.9694 16.1778 29.0324C16.344 29.0954 16.513 29.127 16.6848 29.127C16.8567 29.127 17.0257 29.0954 17.1919 29.0324C17.358 28.9694 17.5098 28.8691 17.6473 28.7316L20.1739 26.2566L22.7177 28.7316C22.9812 28.9952 23.2992 29.127 23.6716 29.127C24.044 29.127 24.3619 28.9952 24.6255 28.7316C24.889 28.4796 25.0208 28.1702 25.0208 27.8035C25.0208 27.4368 24.889 27.1275 24.6255 26.8754L22.0473 24.3488Z" fill="white"/>
</g>
<defs>
<clipPath id="clip0_112_7529">
<rect width="18" height="17.6" fill="white" transform="matrix(1 0 0 -1 11 28.9258)"/>
</clipPath>
</defs>
</svg>
