<svg width="24" height="27" viewBox="0 0 24 27" fill="none" xmlns="http://www.w3.org/2000/svg">
<path d="M9 22.0247L13.96 17.0647C14.8533 16.1714 15.46 15.1181 15.78 13.9047C16.0867 12.7181 16.0867 11.5314 15.78 10.3447C15.46 9.13139 14.85 8.07473 13.95 7.17473C13.05 6.27473 11.9933 5.66473 10.78 5.34473C9.59333 5.03806 8.40667 5.03806 7.22 5.34473C6.00667 5.66473 4.95 6.27473 4.05 7.17473C3.15 8.07473 2.54 9.13139 2.22 10.3447C1.91333 11.5314 1.91333 12.7181 2.22 13.9047C2.54 15.1181 3.15333 16.1781 4.06 17.0847L9 22.0247ZM9 24.8447L2.64 18.4847C1.48 17.3381 0.7 15.9781 0.3 14.4047C-0.1 12.8847 -0.1 11.3647 0.3 9.84473C0.7 8.27139 1.47667 6.90806 2.63 5.75473C3.78333 4.60139 5.14667 3.82473 6.72 3.42473C8.24 3.02473 9.76 3.02473 11.28 3.42473C12.8533 3.82473 14.2167 4.60139 15.37 5.75473C16.5233 6.90806 17.3 8.27139 17.7 9.84473C18.1 11.3647 18.1 12.8847 17.7 14.4047C17.3 15.9781 16.52 17.3381 15.36 18.4847L9 24.8447ZM9 14.1247C9.54667 14.1247 10.0167 13.9281 10.41 13.5347C10.8033 13.1414 11 12.6714 11 12.1247C11 11.5781 10.8033 11.1081 10.41 10.7147C10.0167 10.3214 9.54667 10.1247 9 10.1247C8.45333 10.1247 7.98333 10.3214 7.59 10.7147C7.19667 11.1081 7 11.5781 7 12.1247C7 12.6714 7.19667 13.1414 7.59 13.5347C7.98333 13.9281 8.45333 14.1247 9 14.1247ZM9 16.1247C8.28 16.1247 7.61333 15.9447 7 15.5847C6.38667 15.2247 5.9 14.7381 5.54 14.1247C5.18 13.5114 5 12.8447 5 12.1247C5 11.4047 5.18 10.7381 5.54 10.1247C5.9 9.51139 6.38667 9.02473 7 8.66473C7.61333 8.30473 8.28 8.12473 9 8.12473C9.72 8.12473 10.3867 8.30473 11 8.66473C11.6133 9.02473 12.1 9.51139 12.46 10.1247C12.82 10.7381 13 11.4047 13 12.1247C13 12.8447 12.82 13.5114 12.46 14.1247C12.1 14.7381 11.6133 15.2247 11 15.5847C10.3867 15.9447 9.72 16.1247 9 16.1247Z" fill="#FF9C08"/>
</svg>
