<svg width="175" height="41" viewBox="0 0 175 41" fill="none" xmlns="http://www.w3.org/2000/svg">
<g clip-path="url(#clip0_112_7458)">
<path d="M106.482 31.4729C103.687 31.4729 101.009 31.4729 98.1455 31.4729C99.3655 24.5156 100.569 17.6438 101.789 10.7208C104.33 10.7208 106.787 10.7208 109.228 10.7208C109.634 11.2336 109.465 11.9002 109.838 12.4643C111.413 11.0284 113.21 10.1908 115.345 10.1396C117.564 10.0883 119.327 10.8233 120.259 13.0626C121.343 12.037 122.428 11.1823 123.732 10.6866C125.088 10.1908 126.478 10.0199 127.901 10.1908C130.172 10.4814 131.663 12.2934 131.764 14.6695C131.849 16.7037 131.425 18.6866 131.07 20.6695C130.443 24.2421 129.799 27.8148 129.155 31.4558C126.444 31.4558 123.749 31.4558 121.055 31.4558C120.835 31.1994 120.953 30.9259 121.004 30.6524C121.699 26.7378 122.394 22.8404 123.089 18.9259C123.139 18.6524 123.105 18.3618 123.122 18.0712C123.156 17.3874 123.139 16.7378 122.258 16.5669C121.513 16.4302 120.835 16.7549 120.462 17.5242C120.106 18.2421 120.038 19.0455 119.903 19.8319C119.259 23.4558 118.615 27.0968 117.971 30.7208C117.92 30.9601 117.836 31.1994 117.751 31.4729C115.057 31.4729 112.379 31.4729 109.634 31.4729C109.465 30.4814 109.854 29.5584 109.99 28.6353C110.566 25.1652 111.176 21.7122 111.786 18.2421C111.922 17.5071 111.871 16.8575 111.041 16.584C110.329 16.3447 109.516 16.7037 109.143 17.4729C108.618 18.5669 108.584 19.7806 108.363 20.943C107.736 24.4302 107.126 27.9173 106.482 31.4729Z" fill="#313F49"/>
<path d="M34.1782 10.7036C37.1266 10.7036 39.9903 10.7036 42.9896 10.7036C42.7185 11.3361 42.4982 11.8831 42.244 12.413C38.9906 19.1139 35.7371 25.7976 32.4667 32.4814C31.5178 34.4301 30.3825 36.2592 28.6711 37.6438C27.2138 38.8404 25.5532 39.4558 23.7062 39.5241C22.5878 39.5754 21.4525 39.6438 20.3341 39.3703C19.8766 39.2506 19.3852 39.1993 18.9785 38.772C18.9785 36.7891 18.9785 34.7378 18.9785 32.584C21.1644 33.1139 23.3842 33.678 24.8076 31.2335C23.6045 24.413 22.4014 17.6267 21.1814 10.7378C23.9773 10.7378 26.6038 10.7378 29.4505 10.7378C29.7386 14.3617 30.0267 18.0199 30.3147 21.678C30.3656 21.6951 30.3994 21.7122 30.4503 21.7293C31.6873 18.054 32.9412 14.3788 34.1782 10.7036Z" fill="#313F49"/>
<path d="M156.64 31.2164C155.42 24.3446 154.233 17.5754 153.013 10.7207C155.843 10.7207 158.487 10.7207 161.283 10.7207C161.571 14.3959 161.859 18.054 162.147 21.6951C162.198 21.7122 162.231 21.7122 162.282 21.7293C163.519 18.0711 164.773 14.3959 166.01 10.7036C168.942 10.7036 171.805 10.7036 174.737 10.7036C174.652 11.3874 174.313 11.9173 174.042 12.4643C170.856 19.0626 167.654 25.6609 164.434 32.2421C163.468 34.2079 162.35 36.0711 160.656 37.5412C159.317 38.6865 157.775 39.3361 156.063 39.5241C154.725 39.6609 153.352 39.6951 152.014 39.3703C151.607 39.2677 151.183 39.1993 150.811 38.7891C150.811 36.8233 150.811 34.7891 150.811 32.6352C152.98 33.0626 155.216 33.7293 156.64 31.2164Z" fill="#313F49"/>
<path d="M96.5356 24.8405C95.807 26.9601 95.1122 28.943 94.4344 30.9088C93.3669 31.49 92.2146 31.6268 91.0624 31.7635C88.6731 32.0541 86.2839 32.1738 83.9116 31.6268C80.2684 30.8063 78.1503 28.4644 77.913 24.584C77.6928 21.0969 78.3367 17.7293 80.3023 14.7379C82.0137 12.1567 84.4877 10.8405 87.4361 10.3276C89.317 10.0028 91.1979 10.0028 93.0449 10.4986C96.0272 11.302 97.942 13.7977 98.0437 16.9088C98.1115 18.9088 97.9251 20.8746 97.3659 22.9088C93.5194 22.9088 89.6729 22.9088 85.8602 22.9088C85.4875 24.0712 86.1144 25.1481 87.3514 25.5071C88.5037 25.8319 89.6729 25.9345 90.859 25.7806C91.7741 25.661 92.706 25.6439 93.6211 25.49C94.553 25.3533 95.4511 25.0969 96.5356 24.8405ZM91.3335 18.6011C91.4521 17.5413 91.5029 16.584 90.7235 15.9003C90.0118 15.2678 89.1306 15.3191 88.3342 15.7464C87.2667 16.3447 86.6736 17.2849 86.5042 18.6011C88.1478 18.6011 89.6729 18.6011 91.3335 18.6011Z" fill="#313F49"/>
<path d="M41.1087 30.7209C41.1256 28.6867 41.0239 26.6696 41.2951 24.6012C44.4977 25.5756 47.6325 26.6525 50.9707 25.8661C51.0384 25.4901 51.0893 25.3362 51.0893 25.1653C51.1062 25.0285 51.0723 24.8918 51.0554 24.755C50.6826 24.1567 50.0726 24.1055 49.4964 23.9687C48.1578 23.6439 46.7852 23.5072 45.4974 22.9431C43.5149 22.0713 42.6337 20.5157 42.5998 18.379C42.549 15.9516 43.176 13.832 45.0569 12.1909C46.4633 10.9602 48.1917 10.5328 49.9709 10.3277C52.8685 9.9858 55.7661 10.1909 58.5959 10.9773C59.0195 11.0969 59.4771 11.1995 59.9176 11.5755C59.7821 13.4388 59.5279 15.3191 59.2229 17.285C57.5962 16.6867 56.0203 16.2764 54.4105 16.0371C53.4446 15.9003 52.4957 15.9003 51.5468 15.9516C50.8182 15.9858 50.5809 16.4132 50.7165 17.3191C51.7332 18.02 52.9871 18.02 54.1394 18.3277C54.8172 18.4986 55.5119 18.6183 56.1728 18.9089C57.6978 19.5755 58.7315 20.6867 58.9856 22.379C59.3754 25.0798 58.9687 27.6097 56.9522 29.6268C55.7153 30.8576 54.1055 31.3875 52.4618 31.6097C49.0389 32.0713 45.5991 32.02 42.244 31.0798C41.8543 31.0114 41.5154 30.8576 41.1087 30.7209Z" fill="#313F49"/>
<path d="M142.643 25.3361C145.236 25.3361 147.743 25.3361 150.404 25.3361C149.692 27.4557 149.014 29.4557 148.32 31.4728C142.711 31.4728 137.153 31.4728 131.527 31.4728C131.747 29.5925 131.985 27.7634 132.527 26.0198C132.747 25.2848 133.56 24.7036 134.154 24.1053C136.204 21.9857 138.288 19.9002 140.339 17.7805C140.576 17.5412 140.864 17.3361 140.982 16.8575C138.83 16.8575 136.712 16.8575 134.442 16.8575C134.679 14.7036 135.119 12.7378 135.492 10.7207C141.05 10.7207 146.506 10.7207 151.946 10.7207C152.166 11.0968 152.081 11.4216 152.014 11.7634C151.81 12.9429 151.573 14.1053 151.387 15.2848C151.285 15.9515 151.014 16.4814 150.522 16.9771C148.032 19.4899 145.575 22.054 143.101 24.5839C142.965 24.7549 142.762 24.9087 142.643 25.3361Z" fill="#313F49"/>
<path d="M64.2725 16.1395C63.2388 16.1395 62.3068 16.1395 61.2732 16.1395C61.629 14.2592 61.951 12.4985 62.3068 10.6523C63.3235 10.6523 64.2386 10.6523 65.1705 10.6523C65.645 9.13098 65.6281 7.60961 66.1195 6.15662C68.8984 5.66089 71.6266 5.16517 74.4903 4.63525C74.4056 6.70363 73.7447 8.56688 73.66 10.6353C75.3037 10.6353 76.8626 10.6353 78.5401 10.6353C78.3538 12.5327 77.9301 14.2592 77.6421 16.1053C75.9815 16.1053 74.3208 16.1053 72.6602 16.1053C72.2874 17.1652 72.2197 18.1908 72.0502 19.1823C71.796 20.6011 71.4402 22.0199 71.4232 23.4729C71.4232 24.6865 72.0163 25.2848 73.2194 25.3703C74.3547 25.4387 75.4562 25.2335 76.7101 24.8575C75.9815 27.0113 75.3037 29.0455 74.6089 31.0797C73.7617 31.5241 72.8297 31.6438 71.9147 31.7635C70.4404 31.9515 68.9493 32.0541 67.4751 31.6951C64.713 31.0284 63.0694 28.9259 62.9677 26.0541C62.866 23.4387 63.5099 20.9258 63.8997 18.3788C64.0013 17.6951 64.12 16.9942 64.2725 16.1395Z" fill="#313F49"/>
<path d="M7.09985 6.65228C7.35403 4.73775 7.03207 2.85741 7.48959 0.925781C9.33659 0.959969 11.1836 1.1651 13.1153 1.09672C13.217 3.09672 12.8442 4.95997 12.9798 7.06253C10.9972 6.78903 9.09936 7.06253 7.09985 6.65228Z" fill="#313F49"/>
<path fill-rule="evenodd" clip-rule="evenodd" d="M8.98355 12.294C8.94208 11.6977 8.90125 11.1057 8.86225 10.5155C8.86225 10.5155 8.86224 10.5155 8.86225 10.5155C9.55555 10.2077 10.317 10.2091 11.0443 10.2103C11.2058 10.2106 11.3656 10.2109 11.5226 10.2078C13.9118 10.1565 16.3011 10.3958 18.6056 11.1651C18.8199 11.2423 19.0203 11.3334 19.3069 11.4637C19.3376 11.4777 19.3692 11.4921 19.402 11.5069C19.3003 13.4386 19.0292 15.336 18.7073 17.3189C17.0636 16.7035 15.4877 16.2933 13.861 16.054C12.9121 15.9172 11.9462 15.9343 10.9973 15.9856C10.3195 16.0198 10.0823 16.4129 10.167 17.336C10.855 17.8506 11.676 17.9966 12.5019 18.1434C12.8557 18.2063 13.2104 18.2694 13.556 18.3616C13.728 18.406 13.901 18.4476 14.0743 18.4892C14.6348 18.6238 15.1982 18.7591 15.7419 18.9941C17.2161 19.6608 18.182 20.7377 18.4361 22.3616C18.8428 25.0625 18.4531 27.5924 16.4536 29.6266C15.2166 30.9087 13.5729 31.4215 11.8954 31.6608C8.48943 32.1223 5.10043 32.054 1.74532 31.148C1.48298 31.0724 1.22985 30.9782 0.945196 30.8722C0.843735 30.8345 0.738268 30.7952 0.626952 30.7548C0.626952 30.3147 0.621306 29.8739 0.615645 29.4318C0.595359 27.8477 0.574881 26.2485 0.813347 24.6181C1.00565 24.6766 1.19771 24.7354 1.38958 24.7943C4.39321 25.715 7.35224 26.6221 10.5059 25.883C10.5278 25.7208 10.5497 25.5968 10.5676 25.4958C10.5911 25.3627 10.6076 25.2697 10.6076 25.1822C10.6076 25.0454 10.5906 24.9087 10.5737 24.7719C10.2316 24.2768 9.71984 24.1636 9.21024 24.0508C9.13922 24.0351 9.06825 24.0194 8.99778 24.0027C8.60453 23.9096 8.20849 23.832 7.81326 23.7545C6.82904 23.5616 5.84982 23.3697 4.93098 22.9428C3.03314 22.071 2.152 20.5497 2.13506 18.4813V16.6864C3.41785 16.5654 4.70567 16.4494 5.99852 16.333C7.07948 16.2357 8.16396 16.1381 9.25196 16.0369C9.20826 15.4198 9.16457 14.8151 9.12145 14.2183C9.07457 13.5696 9.02835 12.9301 8.98355 12.294Z" fill="#313F49"/>
<path d="M20.8254 4.85726C20.3679 6.53247 19.9443 8.07093 19.5037 9.69487C17.8939 9.25042 16.3519 8.82307 14.7083 8.37863C15.1319 6.77179 15.5555 5.19914 16.013 3.52393C17.6228 3.96837 19.1817 4.39572 20.8254 4.85726Z" fill="#FE904D"/>
<path d="M119.496 34.0881C120.089 33.7975 120.242 34.0881 120.344 34.4471C120.615 34.2933 120.818 34.1565 121.055 34.0539C122.394 33.4727 123.478 34.2078 123.444 35.6608C123.427 36.0539 123.36 36.4471 123.292 36.8403C122.936 38.9599 121.614 39.6266 119.649 38.6351C119.513 39.3702 119.378 40.071 119.242 40.7548C118.988 40.9941 118.734 40.9599 118.344 40.8574C118.734 38.5839 119.123 36.3104 119.496 34.0881ZM122.462 35.7292C122.445 35.4557 122.546 34.9086 121.902 34.7719C121.242 34.6351 120.649 34.7548 120.327 35.4386C120.089 35.9343 119.988 36.4642 119.937 36.9941C119.886 37.5411 119.937 38.071 120.53 38.2591C121.157 38.4642 121.716 38.242 122.055 37.6608C122.343 37.1309 122.462 36.5497 122.462 35.7292Z" fill="#009641"/>
<path d="M67.7122 35.7973C67.136 36.4469 66.5599 37.1136 65.9329 37.8486C65.5263 37.0965 65.1535 36.4127 64.679 35.5409C64.4418 36.8059 64.2384 37.8657 64.0351 38.9255C63.7301 39.0965 63.4759 39.1136 63.1709 38.9255C63.459 37.3187 63.7301 35.6948 64.0181 34.1221C64.2893 33.8999 64.5265 33.9512 64.8485 34.0538C65.2382 34.8059 65.6618 35.6093 66.0685 36.4127C67.1699 35.7461 67.458 34.1563 69.0508 33.8999C68.9322 35.6948 68.4747 37.2845 68.2883 38.8572C68.0002 39.1307 67.7461 39.0623 67.3733 38.9768C67.5427 37.9341 67.7122 36.8914 67.8816 35.8486C67.8308 35.8144 67.763 35.7973 67.7122 35.7973Z" fill="#009641"/>
<path d="M95.0446 34.0199C95.3666 33.9344 95.6208 33.9173 95.9766 34.0541C95.7055 35.6609 95.4174 37.2848 95.1463 38.8917C94.8921 39.0968 94.638 39.0455 94.3329 38.9942C94.1974 37.9515 94.7396 36.96 94.638 35.7806C93.5535 36.7891 92.8418 37.9857 91.9098 38.96C91.6556 39.0455 91.4015 39.0455 91.0117 38.96C91.2828 37.3361 91.554 35.7122 91.8251 34.1224C92.1301 33.8831 92.3843 33.9002 92.7401 34.037C92.5707 35.0626 92.4182 36.1053 92.2487 37.131C92.2995 37.1481 92.3673 37.1823 92.4182 37.1994C93.2993 36.1566 94.1635 35.0968 95.0446 34.0199Z" fill="#009641"/>
<path d="M140.796 34.0196C141.101 33.9342 141.372 33.8829 141.728 34.0538C141.44 35.6778 141.152 37.3017 140.881 38.9085C140.593 39.0624 140.356 39.0624 140.051 38.9427C140 37.9171 140.457 36.9256 140.406 35.6436C139.407 36.8743 138.559 37.9 137.712 38.9256C137.424 39.0624 137.153 39.0624 136.763 38.9256C137.034 37.3017 137.322 35.6778 137.593 34.088C137.932 33.8829 138.187 33.8658 138.492 34.0538C138.322 35.0624 138.17 36.088 138 37.1136C138.051 37.1478 138.119 37.182 138.17 37.1991C139.051 36.1564 139.932 35.0795 140.796 34.0196Z" fill="#009641"/>
<path d="M46.2768 34.0371C45.9887 35.7123 45.7176 37.3192 45.4465 38.8918C45.1415 39.097 44.8704 39.0286 44.5484 38.9773C44.7179 37.9175 44.8704 36.9089 45.0229 35.9004C44.9551 35.8662 44.8873 35.8491 44.8365 35.8149C43.9892 36.8576 43.142 37.9004 42.2778 38.9431C41.9897 39.0628 41.7016 39.0628 41.3289 38.926C41.6169 37.3021 41.905 35.6611 42.1761 34.0713C42.4811 33.9175 42.7183 33.9004 42.9895 34.1055C43.0234 35.1824 42.5997 36.2252 42.5489 37.473C43.5487 36.2594 44.4467 35.1482 45.3279 34.0713C45.599 33.9004 45.8532 33.9346 46.2768 34.0371Z" fill="#009641"/>
<path d="M134.289 34.0882C134.594 33.9001 134.797 33.9172 135.119 34.0369C135.085 35.3702 134.662 36.6694 134.526 38.0027C134.611 38.2933 134.95 38.1053 135.102 38.3617C135.018 38.9258 134.984 39.5412 134.763 40.1224C134.526 40.2762 134.289 40.2933 134.069 40.3104C133.832 39.9001 134.221 39.5582 134.035 39.0796C132.916 39.0796 131.764 39.0796 130.459 39.0796C130.748 37.336 131.036 35.7292 131.29 34.1565C131.561 33.883 131.832 33.9172 132.205 34.0369C131.985 35.3702 131.764 36.7206 131.544 38.1053C132.273 38.2249 132.866 38.2078 133.527 38.1224C133.798 36.7377 134.052 35.3873 134.289 34.0882Z" fill="#009641"/>
<path d="M85.2672 37.3019C84.9114 37.1309 84.6064 37.1993 84.2166 37.2335C83.7761 37.7805 83.3016 38.3788 82.8441 38.9258C82.5221 39.0625 82.251 39.0284 81.9121 38.9771C82.2002 38.2762 82.8271 37.8489 83.1491 37.2164C83.0813 36.8574 82.7085 36.7036 82.6069 36.3617C82.3018 35.4386 82.8441 34.3446 83.793 34.0711C84.403 33.9002 85.8095 33.866 86.7245 34.054C86.6398 35.7121 86.1822 37.3019 85.962 38.8916C85.657 39.0967 85.4197 39.0113 85.0639 39.0113C85.1147 38.4472 85.1825 37.9002 85.2672 37.3019ZM83.5388 36.2078C84.1658 36.5839 84.7928 36.4813 85.4367 36.3788C85.5045 35.8489 85.7756 35.3873 85.6061 34.8745C83.9455 34.5497 83.3694 34.8916 83.5388 36.2078Z" fill="#009641"/>
<path d="M146.744 38.9256C146.388 39.0623 146.168 39.0623 145.897 38.9598C145.727 38.4299 146.202 37.8829 145.947 37.3188C145.659 37.1307 145.354 37.2333 145.032 37.2333C144.541 37.8316 144.066 38.4299 143.609 38.994C143.287 39.0452 143.016 39.0965 142.677 38.9427C143.118 38.3615 143.541 37.7974 143.965 37.2162C143.761 36.9256 143.524 36.6863 143.406 36.3786C143.016 35.5068 143.609 34.3786 144.558 34.0709C145.134 33.8999 146.473 33.8658 147.506 34.0367C147.405 35.6948 146.947 37.3017 146.744 38.9256ZM146.235 36.3957C146.286 35.8316 146.574 35.3358 146.422 34.8059C144.558 34.6179 144.033 34.994 144.355 36.2418C144.914 36.5666 145.524 36.4641 146.235 36.3957Z" fill="#009641"/>
<path d="M128.443 38.9599C127.986 39.0966 127.647 39.1308 127.63 38.5496C126.274 39.3531 125.562 39.3531 124.732 38.5325C124.495 37.3872 124.715 36.7206 125.495 36.3445C126.257 35.9513 127.104 36.2761 127.918 36.0881C128.138 35.7804 128.087 35.4556 127.986 35.0454C127.274 34.5325 126.461 34.8573 125.647 34.8402C125.512 34.5838 125.732 34.3958 125.749 34.1907C126.444 33.8488 127.121 33.883 127.799 33.9513C128.714 34.0539 129.172 34.6864 129.036 35.6437C128.867 36.7206 128.646 37.7975 128.443 38.9599ZM127.816 36.8744C127.274 36.7206 126.749 36.7548 126.257 36.8402C125.749 36.9257 125.478 37.3018 125.512 37.8146C125.562 38.3445 125.986 38.3616 126.41 38.3616C127.308 38.3445 127.698 37.9684 127.816 36.8744Z" fill="#009641"/>
<path d="M79.6247 36.1392C79.7941 35.7119 79.7941 35.4042 79.6755 35.0281C78.9638 34.5153 78.1505 34.8401 77.3371 34.823C77.2354 34.5666 77.371 34.3614 77.4896 34.1563C78.1335 33.8315 78.8283 33.8657 79.4891 33.9341C80.4041 34.0367 80.8617 34.6691 80.7261 35.6264C80.5736 36.7204 80.3533 37.7973 80.15 38.9255C79.7263 39.0965 79.3874 39.1307 79.3197 38.4811C78.9299 38.7204 78.6249 39.011 78.1843 39.0794C77.1507 39.2332 76.439 38.8743 76.3373 38.105C76.2018 37.0452 76.8118 36.2247 77.8454 36.1392C78.4216 36.0879 79.0146 36.1392 79.6247 36.1392ZM79.5061 36.8743C78.9808 36.7033 78.4385 36.7546 77.9302 36.8401C77.4727 36.9255 77.2015 37.3016 77.2354 37.7802C77.2693 38.3102 77.676 38.3614 78.0996 38.3614C79.0316 38.3614 79.4722 37.917 79.5061 36.8743Z" fill="#009641"/>
<path d="M109.295 36.7721C109.092 37.6952 109.346 38.1567 110.109 38.2935C110.702 38.4131 111.278 38.1567 111.837 38.1909C111.989 38.5328 111.82 38.7208 111.617 38.943C110.752 39.1311 109.854 39.2849 109.024 38.7892C108.295 38.3618 108.194 37.6268 108.279 36.8405C108.346 36.2422 108.431 35.661 108.736 35.1311C109.312 34.0883 110.515 33.5755 111.634 33.9516C112.227 34.1396 112.566 34.567 112.633 35.1994C112.684 35.6781 112.667 36.1567 112.549 36.755C111.481 36.7721 110.397 36.7721 109.295 36.7721ZM111.684 36.0712C111.837 35.1482 111.634 34.7379 110.956 34.6353C110.159 34.5328 109.532 35.1311 109.448 36.0712C110.21 36.1567 110.956 36.1738 111.684 36.0712Z" fill="#009641"/>
<path d="M61.7137 36.8059C60.5954 36.8059 59.5617 36.8059 58.545 36.8059C58.2061 38.0708 58.3247 38.1392 61.0359 38.2589C61.1715 38.6691 61.019 38.9426 60.6293 39.011C59.9684 39.1307 59.2906 39.1991 58.6128 38.9939C58.257 38.8914 57.9181 38.6691 57.7656 38.3273C57.2572 37.2332 57.4605 36.1563 57.952 35.1307C58.3586 34.2931 59.0703 33.8999 60.0023 33.8828C61.3748 33.8828 62.0357 34.6008 61.8832 35.9512C61.8493 36.2247 61.7815 36.464 61.7137 36.8059ZM60.8157 34.9597C59.6634 34.3444 58.8331 34.7717 58.6128 36.0879C59.3923 36.1563 60.1548 36.1734 60.9173 36.0879C61.1376 35.6606 60.9851 35.3187 60.8157 34.9597Z" fill="#009641"/>
<path d="M100.67 36.0712C101.026 35.4045 100.924 34.6865 101.179 34.0541C101.433 33.8831 101.687 33.9002 102.043 34.0712C101.772 35.6609 101.484 37.2848 101.212 38.8575C100.941 39.131 100.67 38.9942 100.382 39.0113C100.264 38.2934 100.67 37.6609 100.535 36.96C99.8907 36.8233 99.2468 36.8575 98.586 36.9429C98.281 37.5754 98.3318 38.2763 98.1284 38.9088C97.8743 39.0968 97.6032 39.0626 97.2473 38.9429C97.5354 37.319 97.8065 35.678 98.0946 34.0882C98.3826 33.9173 98.6199 33.9173 98.874 34.0541C99.1113 34.7036 98.6029 35.319 98.8062 36.0028C99.3993 36.1908 100.043 36.0712 100.67 36.0712Z" fill="#009641"/>
<path d="M74.3207 38.9602C73.9649 39.0457 73.7446 39.0799 73.5074 38.9089C73.4057 38.2764 73.7616 37.6611 73.6768 36.9602C73.0329 36.7893 72.3721 36.8576 71.6604 36.926C71.5248 37.6098 71.3723 38.2594 71.2368 38.9089C70.9826 39.0799 70.7453 39.0628 70.3726 38.8918C70.6437 37.285 70.9317 35.6611 71.2029 34.0884C71.5418 33.9175 71.779 33.8833 72.084 34.0713C71.9993 34.6867 71.8976 35.3192 71.8129 35.9858C72.5076 36.1568 73.1685 36.0884 73.8971 36.0371C74.0327 35.3534 74.1682 34.7038 74.2869 34.1055C74.5749 33.8662 74.8122 33.9346 75.1849 34.0029C74.8969 35.6782 74.6088 37.3021 74.3207 38.9602Z" fill="#009641"/>
<path d="M39.7191 38.1226C39.6344 38.4644 39.6175 38.7208 39.3633 38.926C38.8041 39.114 38.211 39.1995 37.5841 39.0627C37.1435 38.9602 36.8046 38.7038 36.5843 38.3448C36.1098 37.5414 36.4148 35.5926 37.1435 34.7208C37.8382 33.9003 38.9905 33.661 40.1597 34.1226C40.363 34.3448 40.2444 34.6012 40.2275 34.8576C40.1089 34.8576 40.0241 34.8747 39.9564 34.8576C38.0416 34.5157 36.9063 35.7465 37.3807 37.6439C37.5163 38.1909 37.923 38.3619 38.3974 38.3448C38.821 38.2935 39.2277 38.1909 39.7191 38.1226Z" fill="#009641"/>
<path d="M50.8689 38.1737C50.9367 38.4985 50.835 38.772 50.5639 38.8916C49.8691 39.2164 49.1405 39.2335 48.4457 38.9087C47.8188 38.6181 47.5815 38.0199 47.5815 37.3703C47.5985 36.6694 47.7002 35.9515 48.0052 35.3019C48.6321 33.9515 50.1402 33.4557 51.5128 34.1737C51.5128 34.2592 51.5297 34.3788 51.5128 34.4814C51.4958 34.584 51.445 34.6865 51.4111 34.7891C51.3264 34.8062 51.2756 34.8233 51.2247 34.8233C49.4794 34.3959 48.6152 35.0113 48.5644 37.1139C48.5474 38.0199 48.988 38.3788 49.8861 38.3105C50.208 38.2934 50.513 38.0882 50.8689 38.1737Z" fill="#009641"/>
<path d="M55.1221 34.8064C54.868 36.2252 54.6138 37.5756 54.3766 38.9089C54.0715 39.0799 53.8004 39.0799 53.4954 38.926C53.7157 37.5927 53.936 36.2423 54.1732 34.8405C53.6479 34.8064 53.2412 34.7722 52.8346 34.738C52.7159 34.4474 52.7668 34.2252 52.9532 33.9858C54.1393 33.9858 55.3424 33.9858 56.5286 33.9858C56.7489 34.2252 56.7319 34.4645 56.5455 34.738C56.1219 34.7551 55.6813 34.7722 55.1221 34.8064Z" fill="#009641"/>
<path d="M104.89 34.8918C104.449 34.6354 103.958 34.9089 103.551 34.6696C103.449 34.3961 103.5 34.1739 103.72 33.9858C104.957 33.9858 106.177 33.9858 107.397 33.9858C107.499 34.2764 107.397 34.4816 107.279 34.7209C106.855 34.738 106.415 34.7722 105.889 34.7893C105.635 36.1568 105.381 37.5243 105.127 38.8747C104.89 39.0799 104.652 39.0286 104.313 38.926C104.313 37.5756 104.805 36.2593 104.89 34.8918Z" fill="#009641"/>
<path d="M114.802 33.9858C115.87 33.9858 116.819 33.9858 117.734 33.9858C117.937 34.2423 117.853 34.4474 117.785 34.7551C117.056 34.7551 116.328 34.7551 115.582 34.7551C115.311 36.2081 115.074 37.5585 114.836 38.8747C114.548 39.097 114.311 39.0115 113.972 38.9773C114.142 37.285 114.481 35.6611 114.802 33.9858Z" fill="#009641"/>
<path d="M1.69454 15.7977C1.4912 13.5242 1.3048 11.3874 1.11841 9.09682C3.30431 8.90879 5.47327 8.72075 7.7439 8.51562C7.9303 10.7891 8.11669 12.9601 8.30309 15.2165C6.08329 15.4045 3.93128 15.5925 1.69454 15.7977Z" fill="#009641"/>
</g>
<defs>
<clipPath id="clip0_112_7458">
<rect width="174.737" height="40" fill="white" transform="translate(0 0.925781)"/>
</clipPath>
</defs>
</svg>
