<svg width="263" height="54" viewBox="0 0 263 54" fill="none" xmlns="http://www.w3.org/2000/svg">
<path d="M263 11C263 11.9877 262.815 12.9136 262.444 13.7778C262.086 14.6296 261.593 15.3765 260.963 16.0185C260.333 16.6481 259.586 17.1481 258.722 17.5185C257.87 17.8765 256.951 18.0556 255.963 18.0556C254.938 18.0556 254 17.8827 253.148 17.537C252.296 17.179 251.562 16.6914 250.944 16.0741C250.34 15.4444 249.864 14.7037 249.519 13.8519C249.173 12.9877 249 12.0494 249 11.037C249 10.0494 249.179 9.12963 249.537 8.27778C249.907 7.41358 250.407 6.66667 251.037 6.03704C251.667 5.40741 252.407 4.91358 253.259 4.55556C254.123 4.18519 255.049 4 256.037 4C257.062 4 258 4.17901 258.852 4.53704C259.704 4.88272 260.438 5.37037 261.056 6C261.673 6.61728 262.148 7.35185 262.481 8.2037C262.827 9.05556 263 9.98765 263 11ZM261.63 11.1111C261.63 10.2222 261.488 9.41358 261.204 8.68518C260.92 7.95679 260.525 7.33333 260.019 6.81481C259.525 6.2963 258.932 5.90123 258.241 5.62963C257.562 5.34568 256.827 5.2037 256.037 5.2037C255.185 5.2037 254.407 5.35802 253.704 5.66667C253.012 5.97531 252.42 6.39506 251.926 6.92593C251.432 7.44444 251.049 8.04938 250.778 8.74074C250.506 9.4321 250.37 10.1667 250.37 10.9444C250.37 11.8333 250.512 12.642 250.796 13.3704C251.08 14.0988 251.469 14.7222 251.963 15.2407C252.469 15.7593 253.062 16.1605 253.741 16.4444C254.42 16.716 255.16 16.8519 255.963 16.8519C256.827 16.8519 257.605 16.6975 258.296 16.3889C259 16.0802 259.599 15.6667 260.093 15.1481C260.586 14.6173 260.963 14.0062 261.222 13.3148C261.494 12.6235 261.63 11.8889 261.63 11.1111ZM259.259 14.5741C259.259 14.6235 259.253 14.6667 259.241 14.7037C259.228 14.7407 259.191 14.7716 259.13 14.7963C259.068 14.8086 258.975 14.821 258.852 14.8333C258.741 14.8457 258.58 14.8519 258.37 14.8519C258.198 14.8519 258.049 14.8457 257.926 14.8333C257.815 14.821 257.722 14.8025 257.648 14.7778C257.574 14.7407 257.512 14.6975 257.463 14.6481C257.426 14.5988 257.395 14.5309 257.37 14.4444L256.963 13.1296C256.802 12.6358 256.605 12.2901 256.37 12.0926C256.136 11.8951 255.784 11.7963 255.315 11.7963H254.796V14.537C254.796 14.6481 254.753 14.7284 254.667 14.7778C254.58 14.8272 254.37 14.8519 254.037 14.8519C253.691 14.8519 253.469 14.8272 253.37 14.7778C253.272 14.7284 253.222 14.6481 253.222 14.537V7.7037C253.222 7.46914 253.278 7.28395 253.389 7.14815C253.512 7 253.698 6.92593 253.944 6.92593H255.926C256.444 6.92593 256.889 6.97531 257.259 7.07407C257.642 7.17284 257.957 7.32099 258.204 7.51852C258.451 7.7037 258.63 7.93827 258.741 8.22222C258.864 8.49383 258.926 8.80247 258.926 9.14815C258.926 9.75309 258.759 10.2222 258.426 10.5556C258.105 10.8765 257.673 11.1049 257.13 11.2407C257.426 11.3395 257.704 11.5123 257.963 11.7593C258.222 11.9938 258.451 12.3519 258.648 12.8333L259.13 14.0926C259.216 14.3519 259.259 14.5123 259.259 14.5741ZM257.204 9.33333C257.204 9.18518 257.179 9.04938 257.13 8.92593C257.093 8.79012 257.019 8.67284 256.907 8.57407C256.796 8.47531 256.642 8.40123 256.444 8.35185C256.259 8.29012 256.019 8.25926 255.722 8.25926H254.796V10.5185H255.685C256.265 10.5185 256.66 10.4136 256.87 10.2037C257.093 9.98148 257.204 9.69136 257.204 9.33333Z" fill="white"/>
<g clip-path="url(#clip0_112_7792)">
<path d="M148.69 41.2386C144.786 41.2386 141.048 41.2386 137.049 41.2386C138.752 31.8463 140.432 22.5693 142.136 13.2232C145.685 13.2232 149.116 13.2232 152.524 13.2232C153.091 13.9155 152.855 14.8155 153.375 15.577C155.576 13.6386 158.084 12.5078 161.066 12.4386C164.165 12.3693 166.626 13.3616 167.927 16.3847C169.442 15.0001 170.956 13.8463 172.778 13.177C174.671 12.5078 176.611 12.277 178.599 12.5078C181.77 12.9001 183.852 15.3463 183.994 18.554C184.112 21.3001 183.521 23.977 183.024 26.654C182.148 31.477 181.249 36.3001 180.35 41.2155C176.564 41.2155 172.802 41.2155 169.04 41.2155C168.732 40.8693 168.898 40.5001 168.969 40.1309C169.939 34.8463 170.909 29.5847 171.879 24.3001C171.95 23.9309 171.903 23.5386 171.926 23.1463C171.974 22.2232 171.95 21.3463 170.72 21.1155C169.678 20.9309 168.732 21.3693 168.211 22.4078C167.714 23.377 167.62 24.4616 167.431 25.5232C166.531 30.4155 165.632 35.3309 164.733 40.2232C164.662 40.5463 164.544 40.8693 164.425 41.2386C160.663 41.2386 156.925 41.2386 153.091 41.2386C152.855 39.9001 153.399 38.654 153.588 37.4078C154.393 32.7232 155.245 28.0616 156.097 23.377C156.286 22.3847 156.215 21.5078 155.055 21.1386C154.062 20.8155 152.926 21.3001 152.405 22.3386C151.672 23.8155 151.624 25.454 151.317 27.0232C150.441 31.7309 149.59 36.4386 148.69 41.2386Z" fill="white"/>
<path d="M47.7258 13.2C51.843 13.2 55.8418 13.2 60.0299 13.2C59.6513 14.0538 59.3437 14.7923 58.9888 15.5076C54.4458 24.5538 49.9027 33.5769 45.336 42.6C44.0109 45.2307 42.4256 47.7 40.0357 49.5692C38.0008 51.1846 35.682 52.0153 33.1028 52.1076C31.5412 52.1769 29.9558 52.2692 28.3942 51.8999C27.7553 51.7384 27.0691 51.6692 26.5012 51.0923C26.5012 48.4153 26.5012 45.6461 26.5012 42.7384C29.5536 43.4538 32.6533 44.2153 34.6409 40.9153C32.9609 31.7076 31.2809 22.5461 29.5772 13.2461C33.4814 13.2461 37.149 13.2461 41.1242 13.2461C41.5264 18.1384 41.9287 23.0769 42.3309 28.0153C42.4019 28.0384 42.4492 28.0615 42.5202 28.0846C44.2475 23.123 45.9985 18.1615 47.7258 13.2Z" fill="white"/>
<path d="M218.729 40.8923C217.026 31.6153 215.369 22.4769 213.666 13.223C217.617 13.223 221.308 13.223 225.213 13.223C225.615 18.1846 226.017 23.123 226.419 28.0384C226.49 28.0615 226.538 28.0615 226.609 28.0846C228.336 23.1461 230.087 18.1846 231.814 13.2C235.908 13.2 239.907 13.2 244 13.2C243.882 14.123 243.408 14.8384 243.03 15.5769C238.581 24.4846 234.109 33.3923 229.614 42.2769C228.265 44.9307 226.703 47.4461 224.337 49.4307C222.468 50.9769 220.315 51.8538 217.925 52.1076C216.055 52.2923 214.139 52.3384 212.27 51.9C211.702 51.7615 211.11 51.6692 210.59 51.1153C210.59 48.4615 210.59 45.7153 210.59 42.8076C213.618 43.3846 216.742 44.2846 218.729 40.8923Z" fill="white"/>
<path d="M134.801 32.2845C133.784 35.1461 132.813 37.823 131.867 40.4768C130.376 41.2615 128.767 41.4461 127.158 41.6307C123.822 42.023 120.486 42.1845 117.173 41.4461C112.086 40.3384 109.128 37.1768 108.797 31.9384C108.489 27.2307 109.388 22.6845 112.133 18.6461C114.523 15.1615 117.978 13.3845 122.095 12.6922C124.721 12.2538 127.348 12.2538 129.927 12.923C134.091 14.0076 136.765 17.3769 136.907 21.5769C137.002 24.2769 136.741 26.9307 135.96 29.6769C130.589 29.6769 125.218 29.6769 119.894 29.6769C119.374 31.2461 120.249 32.6999 121.976 33.1845C123.585 33.623 125.218 33.7615 126.874 33.5538C128.152 33.3922 129.454 33.3692 130.731 33.1615C132.033 32.9768 133.287 32.6307 134.801 32.2845ZM127.537 23.8615C127.703 22.4307 127.774 21.1384 126.685 20.2153C125.691 19.3615 124.461 19.4307 123.349 20.0076C121.858 20.8153 121.03 22.0845 120.793 23.8615C123.089 23.8615 125.218 23.8615 127.537 23.8615Z" fill="white"/>
<path d="M57.4034 40.223C57.4271 37.4769 57.2851 34.7538 57.6637 31.9615C62.1358 33.2769 66.5132 34.7307 71.1746 33.6692C71.2692 33.1615 71.3402 32.9538 71.3402 32.723C71.3639 32.5384 71.3165 32.3538 71.2929 32.1692C70.7723 31.3615 69.9205 31.2923 69.116 31.1076C67.2467 30.6692 65.3301 30.4846 63.5318 29.723C60.7634 28.5461 59.533 26.4461 59.4857 23.5615C59.4147 20.2846 60.2902 17.423 62.9166 15.2076C64.8806 13.5461 67.2941 12.9692 69.7785 12.6923C73.8247 12.2307 77.8709 12.5076 81.8224 13.5692C82.4139 13.7307 83.0528 13.8692 83.668 14.3769C83.4787 16.8923 83.1238 19.4307 82.6979 22.0846C80.4263 21.2769 78.2258 20.723 75.9779 20.3999C74.6292 20.2153 73.3041 20.2153 71.9791 20.2846C70.9616 20.3307 70.6304 20.9076 70.8197 22.1307C72.2394 23.0769 73.9903 23.0769 75.5993 23.4923C76.5458 23.723 77.5159 23.8846 78.4387 24.2769C80.5683 25.1769 82.0117 26.6769 82.3666 28.9615C82.9108 32.6076 82.3429 36.023 79.5272 38.7461C77.7999 40.4076 75.552 41.123 73.2568 41.423C68.4771 42.0461 63.6738 41.9769 58.9888 40.7076C58.4446 40.6153 57.9713 40.4076 57.4034 40.223Z" fill="white"/>
<path d="M199.185 32.9539C202.805 32.9539 206.307 32.9539 210.022 32.9539C209.028 35.8155 208.082 38.5155 207.111 41.2385C199.279 41.2385 191.518 41.2385 183.663 41.2385C183.97 38.7001 184.301 36.2308 185.059 33.877C185.366 32.8847 186.502 32.1001 187.33 31.2924C190.193 28.4308 193.104 25.6155 195.967 22.7539C196.298 22.4308 196.7 22.1539 196.866 21.5078C193.861 21.5078 190.903 21.5078 187.732 21.5078C188.064 18.6001 188.679 15.9462 189.199 13.2231C196.96 13.2231 204.58 13.2231 212.175 13.2231C212.483 13.7308 212.364 14.1693 212.27 14.6308C211.986 16.2231 211.654 17.7924 211.394 19.3847C211.252 20.2847 210.874 21.0001 210.187 21.6693C206.709 25.0616 203.278 28.5231 199.824 31.9385C199.634 32.1693 199.35 32.377 199.185 32.9539Z" fill="white"/>
<path d="M89.7489 20.5386C88.3056 20.5386 87.0042 20.5386 85.5608 20.5386C86.0577 18.0001 86.5073 15.6232 87.0042 13.1309C88.4239 13.1309 89.7016 13.1309 91.003 13.1309C91.6655 11.077 91.6419 9.0232 92.3281 7.06166C96.2086 6.39243 100.018 5.7232 104.017 5.00781C103.899 7.80012 102.976 10.3155 102.858 13.1078C105.153 13.1078 107.33 13.1078 109.672 13.1078C109.412 15.6694 108.82 18.0001 108.418 20.4924C106.099 20.4924 103.78 20.4924 101.461 20.4924C100.941 21.9232 100.846 23.3078 100.61 24.6463C100.255 26.5617 99.7578 28.477 99.7342 30.4386C99.7342 32.077 100.562 32.8847 102.242 33.0001C103.828 33.0924 105.366 32.8155 107.117 32.3078C106.099 35.2155 105.153 37.9617 104.183 40.7078C103 41.3078 101.698 41.4693 100.42 41.6309C98.3618 41.8847 96.2796 42.0232 94.221 41.5386C90.3641 40.6386 88.0689 37.8001 87.927 33.9232C87.785 30.3924 88.6841 27.0001 89.2284 23.5617C89.3703 22.6386 89.536 21.6924 89.7489 20.5386Z" fill="white"/>
<path d="M9.91431 7.73077L10.4585 0L18.3142 0.230769L17.7955 8.28L9.91431 7.73077Z" fill="white"/>
<path fill-rule="evenodd" clip-rule="evenodd" d="M12.5443 15.3449C12.4865 14.5406 12.4295 13.7421 12.3751 12.9461C13.3433 12.5306 14.4065 12.5324 15.4222 12.5341C15.6476 12.5345 15.8707 12.5349 16.09 12.5307C19.4263 12.4614 22.7626 12.7845 25.9806 13.823C26.2798 13.9272 26.5597 14.0503 26.9598 14.2262C27.0027 14.245 27.0469 14.2644 27.0927 14.2845C26.9507 16.8922 26.5721 19.4538 26.1225 22.1307C23.8274 21.2999 21.6268 20.7461 19.3553 20.423C18.0302 20.2384 16.6815 20.2614 15.3564 20.3307C14.41 20.3768 14.0787 20.9076 14.197 22.1538C15.1578 22.8485 16.3041 23.0455 17.4574 23.2437C17.9515 23.3287 18.4468 23.4138 18.9294 23.5384C19.1696 23.5983 19.4112 23.6544 19.6531 23.7105C20.4358 23.8923 21.2226 24.0749 21.9817 24.3922C24.0403 25.2922 25.389 26.7461 25.744 28.9384C26.3118 32.5845 25.7676 35.9999 22.9755 38.7461C21.2482 40.4768 18.953 41.1691 16.6105 41.4922C11.8545 42.1153 7.12216 42.023 2.43713 40.7999C2.07081 40.6978 1.71735 40.5707 1.31987 40.4277C1.17818 40.3767 1.0309 40.3237 0.875453 40.2691C0.875453 39.675 0.867569 39.0799 0.859665 38.4831C0.831337 36.3445 0.802742 34.1857 1.13573 31.9845C1.40426 32.0635 1.67245 32.143 1.94038 32.2224C6.13461 33.4654 10.2665 34.69 14.6703 33.6922C14.7009 33.4733 14.7315 33.3058 14.7564 33.1695C14.7893 32.9898 14.8122 32.8642 14.8122 32.7461C14.8122 32.5614 14.7886 32.3768 14.7649 32.1922C14.2872 31.5238 13.5726 31.371 12.861 31.2187C12.7619 31.1975 12.6628 31.1763 12.5644 31.1538C12.0152 31.0281 11.4622 30.9233 10.9103 30.8188C9.53596 30.5584 8.16859 30.2993 6.88554 29.723C4.23542 28.5461 3.00501 26.4922 2.98135 23.6999V21.2768C4.77262 21.1134 6.57091 20.9569 8.37621 20.7997C9.88566 20.6683 11.4 20.5365 12.9193 20.3999C12.8583 19.5669 12.7973 18.7506 12.737 17.9449C12.6715 17.0683 12.6069 16.2043 12.5443 15.3449Z" fill="white"/>
<path d="M29.0802 5.30781C28.4414 7.56935 27.8498 9.64627 27.2346 11.8386C24.9867 11.2386 22.8335 10.6617 20.5383 10.0617C21.1299 7.89243 21.7214 5.76935 22.3603 3.50781C24.6082 4.10781 26.785 4.68474 29.0802 5.30781Z" fill="#FE904D"/>
<path d="M166.863 44.7693C167.691 44.377 167.904 44.7693 168.046 45.2539C168.424 45.0462 168.708 44.8616 169.04 44.7231C170.909 43.9385 172.423 44.9308 172.376 46.8923C172.352 47.4231 172.258 47.9539 172.163 48.4847C171.666 51.3462 169.82 52.2462 167.076 50.9077C166.886 51.9 166.697 52.8462 166.508 53.7693C166.153 54.0923 165.798 54.0462 165.254 53.9077C165.798 50.8385 166.342 47.7693 166.863 44.7693ZM171.003 46.9847C170.98 46.6154 171.122 45.877 170.223 45.6923C169.3 45.5077 168.472 45.6693 168.022 46.5923C167.691 47.2616 167.549 47.977 167.478 48.6923C167.407 49.4308 167.478 50.1462 168.306 50.4C169.182 50.677 169.962 50.377 170.436 49.5923C170.838 48.877 171.003 48.0923 171.003 46.9847Z" fill="#81C898"/>
<path d="M94.5523 47.0769C93.7478 47.9538 92.9433 48.8538 92.0678 49.8462C91.4999 48.8308 90.9794 47.9077 90.3168 46.7308C89.9856 48.4385 89.7016 49.8692 89.4177 51.3C88.9918 51.5308 88.6368 51.5538 88.2109 51.3C88.6132 49.1308 88.9918 46.9385 89.394 44.8154C89.7726 44.5154 90.1039 44.5846 90.5535 44.7231C91.0977 45.7385 91.6892 46.8231 92.2571 47.9077C93.7951 47.0077 94.1974 44.8615 96.4216 44.5154C96.2559 46.9385 95.6171 49.0846 95.3568 51.2077C94.9545 51.5769 94.5996 51.4846 94.0791 51.3692C94.3157 49.9615 94.5523 48.5538 94.7889 47.1462C94.7179 47.1 94.6233 47.0769 94.5523 47.0769Z" fill="#81C898"/>
<path d="M132.719 44.6769C133.168 44.5615 133.523 44.5384 134.02 44.723C133.642 46.8923 133.239 49.0846 132.861 51.2538C132.506 51.5307 132.151 51.4615 131.725 51.3923C131.536 49.9846 132.293 48.6461 132.151 47.0538C130.637 48.4153 129.643 50.0307 128.341 51.3461C127.987 51.4615 127.632 51.4615 127.087 51.3461C127.466 49.1538 127.845 46.9615 128.223 44.8153C128.649 44.4923 129.004 44.5153 129.501 44.7C129.264 46.0846 129.051 47.4923 128.815 48.8769C128.886 48.9 128.98 48.9461 129.051 48.9692C130.282 47.5615 131.489 46.1307 132.719 44.6769Z" fill="#81C898"/>
<path d="M196.606 44.677C197.032 44.5617 197.41 44.4924 197.907 44.7232C197.505 46.9155 197.103 49.1078 196.724 51.277C196.322 51.4847 195.99 51.4847 195.565 51.3232C195.494 49.9386 196.132 48.6001 196.061 46.8693C194.665 48.5309 193.482 49.9155 192.299 51.3001C191.897 51.4847 191.518 51.4847 190.974 51.3001C191.353 49.1078 191.755 46.9155 192.134 44.7693C192.607 44.4924 192.962 44.4693 193.388 44.7232C193.151 46.0847 192.938 47.4693 192.701 48.854C192.772 48.9001 192.867 48.9463 192.938 48.9693C194.168 47.5617 195.399 46.1078 196.606 44.677Z" fill="#81C898"/>
<path d="M64.6202 44.7001C64.2179 46.9616 63.8393 49.1309 63.4607 51.254C63.0348 51.5309 62.6562 51.4386 62.2067 51.3693C62.4433 49.9386 62.6562 48.577 62.8692 47.2155C62.7746 47.1693 62.6799 47.1463 62.6089 47.1001C61.4258 48.5078 60.2427 49.9155 59.036 51.3232C58.6337 51.4847 58.2315 51.4847 57.7109 51.3001C58.1132 49.1078 58.5154 46.8924 58.894 44.7463C59.3199 44.5386 59.6512 44.5155 60.0298 44.7924C60.0771 46.2463 59.4856 47.6539 59.4146 49.3386C60.8106 47.7001 62.0647 46.2001 63.2951 44.7463C63.6737 44.5155 64.0286 44.5616 64.6202 44.7001Z" fill="#81C898"/>
<path d="M187.519 44.7692C187.945 44.5154 188.229 44.5385 188.679 44.7C188.632 46.5 188.04 48.2539 187.851 50.0539C187.969 50.4462 188.442 50.1923 188.655 50.5385C188.537 51.3 188.49 52.1308 188.182 52.9154C187.851 53.1231 187.519 53.1462 187.212 53.1692C186.881 52.6154 187.425 52.1539 187.165 51.5077C185.603 51.5077 183.994 51.5077 182.172 51.5077C182.574 49.1539 182.976 46.9846 183.331 44.8615C183.71 44.4923 184.088 44.5385 184.609 44.7C184.301 46.5 183.994 48.3231 183.686 50.1923C184.704 50.3539 185.532 50.3308 186.455 50.2154C186.833 48.3462 187.188 46.5231 187.519 44.7692Z" fill="#81C898"/>
<path d="M119.066 49.1077C118.569 48.877 118.143 48.9693 117.599 49.0154C116.984 49.7539 116.321 50.5616 115.682 51.3C115.233 51.4847 114.854 51.4385 114.381 51.3693C114.783 50.4231 115.659 49.8462 116.108 48.9923C116.014 48.5077 115.493 48.3 115.351 47.8385C114.925 46.5923 115.682 45.1154 117.007 44.7462C117.859 44.5154 119.823 44.4693 121.101 44.7231C120.982 46.9616 120.344 49.1077 120.036 51.2539C119.61 51.5308 119.279 51.4154 118.782 51.4154C118.853 50.6539 118.948 49.9154 119.066 49.1077ZM116.652 47.6308C117.528 48.1385 118.403 48 119.303 47.8616C119.397 47.1462 119.776 46.5231 119.539 45.8308C117.22 45.3923 116.416 45.8539 116.652 47.6308Z" fill="#81C898"/>
<path d="M204.911 51.3001C204.414 51.4847 204.106 51.4847 203.728 51.3462C203.491 50.6308 204.154 49.8924 203.799 49.1308C203.396 48.877 202.971 49.0154 202.521 49.0154C201.835 49.8231 201.172 50.6308 200.533 51.3924C200.084 51.4616 199.705 51.5308 199.232 51.3231C199.847 50.5385 200.439 49.777 201.03 48.9924C200.746 48.6001 200.415 48.277 200.249 47.8616C199.705 46.6847 200.533 45.1616 201.858 44.7462C202.663 44.5154 204.532 44.4693 205.976 44.7001C205.834 46.9385 205.195 49.1078 204.911 51.3001ZM204.201 47.8847C204.272 47.1231 204.674 46.4539 204.461 45.7385C201.858 45.4847 201.125 45.9924 201.574 47.677C202.355 48.1154 203.207 47.977 204.201 47.8847Z" fill="#81C898"/>
<path d="M179.356 51.3462C178.717 51.5308 178.244 51.5769 178.22 50.7923C176.327 51.8769 175.333 51.8769 174.174 50.7692C173.843 49.2231 174.15 48.3231 175.239 47.8154C176.304 47.2846 177.487 47.7231 178.622 47.4692C178.93 47.0539 178.859 46.6154 178.717 46.0616C177.723 45.3692 176.588 45.8077 175.452 45.7846C175.263 45.4385 175.57 45.1846 175.594 44.9077C176.564 44.4462 177.51 44.4923 178.457 44.5846C179.735 44.7231 180.373 45.5769 180.184 46.8692C179.948 48.3231 179.64 49.7769 179.356 51.3462ZM178.481 48.5308C177.723 48.3231 176.99 48.3692 176.304 48.4846C175.594 48.6 175.215 49.1077 175.263 49.8C175.333 50.5154 175.925 50.5385 176.517 50.5385C177.771 50.5154 178.315 50.0077 178.481 48.5308Z" fill="#81C898"/>
<path d="M111.187 47.5385C111.423 46.9616 111.423 46.5462 111.258 46.0385C110.264 45.3462 109.128 45.7846 107.992 45.7616C107.85 45.4154 108.04 45.1385 108.205 44.8616C109.104 44.4231 110.075 44.4692 110.997 44.5616C112.275 44.7 112.914 45.5539 112.725 46.8462C112.512 48.3231 112.204 49.7769 111.92 51.3C111.329 51.5308 110.855 51.5769 110.761 50.7C110.216 51.0231 109.791 51.4154 109.175 51.5077C107.732 51.7154 106.738 51.2308 106.596 50.1923C106.407 48.7616 107.259 47.6539 108.702 47.5385C109.507 47.4692 110.335 47.5385 111.187 47.5385ZM111.021 48.5308C110.287 48.3 109.53 48.3692 108.82 48.4846C108.182 48.6 107.803 49.1077 107.85 49.7539C107.898 50.4692 108.466 50.5385 109.057 50.5385C110.358 50.5385 110.974 49.9385 111.021 48.5308Z" fill="#81C898"/>
<path d="M152.618 48.3924C152.334 49.6385 152.689 50.2616 153.754 50.4462C154.582 50.6078 155.387 50.2616 156.168 50.3078C156.381 50.7693 156.144 51.0232 155.86 51.3232C154.653 51.577 153.399 51.7847 152.24 51.1155C151.222 50.5385 151.08 49.5462 151.199 48.4847C151.293 47.677 151.412 46.8924 151.837 46.177C152.642 44.7693 154.322 44.077 155.884 44.5847C156.712 44.8386 157.185 45.4155 157.28 46.2693C157.351 46.9155 157.327 47.5616 157.161 48.3693C155.671 48.3924 154.156 48.3924 152.618 48.3924ZM155.955 47.4462C156.168 46.2001 155.884 45.6462 154.937 45.5078C153.825 45.3693 152.95 46.177 152.831 47.4462C153.896 47.5616 154.937 47.5847 155.955 47.4462Z" fill="#81C898"/>
<path d="M86.1762 48.4383C84.6145 48.4383 83.1711 48.4383 81.7514 48.4383C81.2782 50.146 81.4438 50.2383 85.2297 50.3999C85.419 50.9537 85.2061 51.323 84.6618 51.4153C83.739 51.5768 82.7926 51.6691 81.8461 51.3922C81.3492 51.2537 80.8759 50.9537 80.663 50.4922C79.9531 49.0153 80.2371 47.5614 80.9233 46.1768C81.4912 45.046 82.485 44.5153 83.7863 44.4922C85.703 44.4922 86.6258 45.4614 86.4128 47.2845C86.3655 47.6537 86.2708 47.9768 86.1762 48.4383ZM84.9221 45.946C83.3131 45.1153 82.1537 45.6922 81.8461 47.4691C82.9345 47.5614 83.9993 47.5845 85.0641 47.4691C85.3717 46.8922 85.1587 46.4306 84.9221 45.946Z" fill="#81C898"/>
<path d="M140.575 47.4461C141.071 46.5461 140.93 45.5769 141.284 44.723C141.639 44.4922 141.994 44.5153 142.491 44.7461C142.113 46.8922 141.71 49.0845 141.332 51.2076C140.953 51.5768 140.575 51.3922 140.172 51.4153C140.007 50.4461 140.575 49.5922 140.385 48.6461C139.486 48.4615 138.587 48.5076 137.664 48.623C137.238 49.4769 137.309 50.423 137.025 51.2768C136.67 51.5307 136.292 51.4845 135.795 51.323C136.197 49.1307 136.576 46.9153 136.978 44.7692C137.38 44.5384 137.712 44.5384 138.066 44.723C138.398 45.5999 137.688 46.4307 137.972 47.3538C138.8 47.6076 139.699 47.4461 140.575 47.4461Z" fill="#81C898"/>
<path d="M103.781 51.3462C103.284 51.4616 102.976 51.5078 102.645 51.277C102.503 50.4232 103 49.5924 102.881 48.6462C101.982 48.4155 101.059 48.5078 100.066 48.6001C99.8763 49.5232 99.6634 50.4001 99.4741 51.277C99.1192 51.5078 98.7879 51.4847 98.2673 51.2539C98.6459 49.0847 99.0482 46.8924 99.4268 44.7693C99.9 44.5385 100.231 44.4924 100.657 44.7462C100.539 45.577 100.397 46.4308 100.279 47.3308C101.249 47.5616 102.172 47.4693 103.189 47.4001C103.378 46.477 103.568 45.6001 103.733 44.7924C104.135 44.4693 104.467 44.5616 104.987 44.6539C104.585 46.9155 104.183 49.1078 103.781 51.3462Z" fill="#81C898"/>
<path d="M55.4632 50.2155C55.3449 50.677 55.3212 51.0232 54.9663 51.3001C54.1854 51.5539 53.3573 51.6693 52.4818 51.4847C51.8666 51.3462 51.3934 51.0001 51.0857 50.5155C50.4232 49.4309 50.8491 46.8001 51.8666 45.6232C52.8367 44.5155 54.4457 44.1924 56.0784 44.8155C56.3623 45.1155 56.1967 45.4616 56.173 45.8078C56.0074 45.8078 55.8891 45.8309 55.7944 45.8078C53.1207 45.3462 51.5353 47.0078 52.1979 49.5693C52.3871 50.3078 52.955 50.5385 53.6176 50.5155C54.2091 50.4462 54.777 50.3078 55.4632 50.2155Z" fill="#81C898"/>
<path d="M71.0325 50.2846C71.1272 50.7231 70.9852 51.0923 70.6066 51.2538C69.6365 51.6923 68.619 51.7154 67.6489 51.2769C66.7734 50.8846 66.4421 50.0769 66.4421 49.2C66.4658 48.2538 66.6078 47.2846 67.0337 46.4077C67.9092 44.5846 70.0151 43.9154 71.9317 44.8846C71.9317 45 71.9553 45.1615 71.9317 45.3C71.908 45.4385 71.837 45.5769 71.7897 45.7154C71.6714 45.7385 71.6004 45.7615 71.5294 45.7615C69.0923 45.1846 67.8855 46.0154 67.8145 48.8538C67.7909 50.0769 68.4061 50.5615 69.6601 50.4692C70.1097 50.4462 70.5356 50.1692 71.0325 50.2846Z" fill="#81C898"/>
<path d="M76.9717 45.7386C76.6167 47.6539 76.2618 49.477 75.9306 51.277C75.5046 51.5078 75.1261 51.5078 74.7001 51.3001C75.0077 49.5001 75.3154 47.677 75.6466 45.7847C74.9131 45.7386 74.3452 45.6924 73.7773 45.6462C73.6117 45.2539 73.6827 44.9539 73.943 44.6309C75.5993 44.6309 77.2793 44.6309 78.9356 44.6309C79.2432 44.9539 79.2195 45.277 78.9593 45.6462C78.3677 45.6693 77.7525 45.6924 76.9717 45.7386Z" fill="#81C898"/>
<path d="M146.466 45.8539C145.851 45.5078 145.165 45.877 144.597 45.5539C144.455 45.1847 144.526 44.8847 144.834 44.6309C146.561 44.6309 148.265 44.6309 149.968 44.6309C150.11 45.0232 149.968 45.3001 149.803 45.6232C149.211 45.6462 148.596 45.6924 147.862 45.7155C147.507 47.5616 147.152 49.4078 146.798 51.2309C146.466 51.5078 146.135 51.4386 145.662 51.3001C145.662 49.477 146.348 47.7001 146.466 45.8539Z" fill="#81C898"/>
<path d="M160.308 44.6309C161.799 44.6309 163.124 44.6309 164.402 44.6309C164.686 44.977 164.567 45.2539 164.473 45.6693C163.455 45.6693 162.438 45.6693 161.397 45.6693C161.018 47.6309 160.687 49.4539 160.356 51.2309C159.953 51.5309 159.622 51.4155 159.149 51.3693C159.386 49.0847 159.859 46.8924 160.308 44.6309Z" fill="#81C898"/>
<path d="M2.36627 20.0769C2.08233 17.0076 1.82205 14.123 1.56177 11.0307C4.61413 10.7769 7.64284 10.523 10.8135 10.2461C11.0738 13.3153 11.3341 16.2461 11.5944 19.2922C8.49466 19.5461 5.48962 19.7999 2.36627 20.0769Z" fill="#009641"/>
</g>
<defs>
<clipPath id="clip0_112_7792">
<rect width="244" height="54" fill="white"/>
</clipPath>
</defs>
</svg>
