<svg width="40" height="41" viewBox="0 0 40 41" fill="none" xmlns="http://www.w3.org/2000/svg">
<rect y="0.125" width="40" height="40" rx="2" fill="#FE001B"/>
<path d="M27.655 15.8018C27.755 16.2018 27.835 16.7568 27.895 17.4668C27.935 17.9768 27.965 18.5368 27.985 19.1468L28 19.9268L27.985 20.7068C27.965 21.3168 27.935 21.8768 27.895 22.3868C27.835 23.0968 27.755 23.6518 27.655 24.0518C27.565 24.4218 27.39 24.7418 27.13 25.0118C26.87 25.2818 26.56 25.4668 26.2 25.5668C25.67 25.7168 24.56 25.8218 22.87 25.8818C22.03 25.9118 21.24 25.9268 20.5 25.9268L19.3 25.9118C18.37 25.8918 17.55 25.8618 16.84 25.8218C15.86 25.7618 15.18 25.6768 14.8 25.5668C14.44 25.4668 14.13 25.2818 13.87 25.0118C13.61 24.7418 13.435 24.4218 13.345 24.0518C13.245 23.6518 13.165 23.0968 13.105 22.3868C13.065 21.8768 13.035 21.3168 13.015 20.7068L13 19.9268L13.015 19.1468C13.035 18.5368 13.065 17.9768 13.105 17.4668C13.165 16.7468 13.245 16.1918 13.345 15.8018C13.435 15.4318 13.61 15.1118 13.87 14.8418C14.13 14.5718 14.44 14.3868 14.8 14.2868C15.33 14.1368 16.44 14.0318 18.13 13.9718C18.97 13.9418 19.76 13.9268 20.5 13.9268L21.7 13.9418C22.63 13.9618 23.45 13.9918 24.16 14.0318C25.14 14.0918 25.82 14.1768 26.2 14.2868C26.56 14.3868 26.87 14.5718 27.13 14.8418C27.39 15.1118 27.565 15.4318 27.655 15.8018ZM19 22.5518L23.5 19.9268L19 17.3018V22.5518Z" fill="white"/>
</svg>
