<svg width="24" height="24" viewBox="0 0 24 24" fill="none" xmlns="http://www.w3.org/2000/svg">
<path d="M7.81556 11.0589C8.93556 13.26 10.74 15.0567 12.9411 16.1844L14.6522 14.4733C14.8622 14.2633 15.1733 14.1933 15.4456 14.2867C16.3167 14.5744 17.2578 14.73 18.2222 14.73C18.65 14.73 19 15.08 19 15.5078V18.2222C19 18.65 18.65 19 18.2222 19C10.9189 19 5 13.0811 5 5.77778C5 5.35 5.35 5 5.77778 5H8.5C8.92778 5 9.27778 5.35 9.27778 5.77778C9.27778 6.75 9.43333 7.68333 9.72111 8.55444C9.80667 8.82667 9.74444 9.13 9.52667 9.34778L7.81556 11.0589Z" fill="#FF9C08"/>
</svg>
