<svg width="24" height="25" viewBox="0 0 24 25" fill="none" xmlns="http://www.w3.org/2000/svg">
<path d="M10 22.125C8.18667 22.125 6.50667 21.6717 4.96 20.765C3.45333 19.8717 2.25333 18.6717 1.36 17.165C0.453333 15.6183 0 13.9383 0 12.125C0 10.3117 0.453333 8.63167 1.36 7.085C2.25333 5.57833 3.45333 4.37833 4.96 3.485C6.50667 2.57833 8.18667 2.125 10 2.125C11.8133 2.125 13.4933 2.57833 15.04 3.485C16.5467 4.37833 17.7467 5.57833 18.64 7.085C19.5467 8.63167 20 10.3117 20 12.125C20 13.9383 19.5467 15.6183 18.64 17.165C17.7467 18.6717 16.5467 19.8717 15.04 20.765C13.4933 21.6717 11.8133 22.125 10 22.125ZM10 20.125C11.4533 20.125 12.8 19.7583 14.04 19.025C15.24 18.3183 16.1933 17.365 16.9 16.165C17.6333 14.925 18 13.5783 18 12.125C18 10.6717 17.6333 9.325 16.9 8.085C16.1933 6.885 15.24 5.93167 14.04 5.225C12.8 4.49167 11.4533 4.125 10 4.125C8.54667 4.125 7.2 4.49167 5.96 5.225C4.76 5.93167 3.80667 6.885 3.1 8.085C2.36667 9.325 2 10.6717 2 12.125C2 13.5783 2.36667 14.925 3.1 16.165C3.80667 17.365 4.76 18.3183 5.96 19.025C7.2 19.7583 8.54667 20.125 10 20.125ZM11 12.125H15V14.125H9V7.125H11V12.125Z" fill="#FF9C08"/>
</svg>
