<svg width="24" height="24" viewBox="0 0 24 24" fill="none" xmlns="http://www.w3.org/2000/svg">
<g clip-path="url(#clip0_112_8200)">
<path d="M11.991 3C7.023 3 3 7.032 3 12C3 16.968 7.023 21 11.991 21C16.968 21 21 16.968 21 12C21 7.032 16.968 3 11.991 3ZM12 19.2C8.022 19.2 4.8 15.978 4.8 12C4.8 8.022 8.022 4.8 12 4.8C15.978 4.8 19.2 8.022 19.2 12C19.2 15.978 15.978 19.2 12 19.2ZM12.45 7.5H11.1V12.9L15.825 15.735L16.5 14.628L12.45 12.225V7.5Z" fill="#FF9C08"/>
</g>
<defs>
<clipPath id="clip0_112_8200">
<rect width="24" height="24" fill="white"/>
</clipPath>
</defs>
</svg>
