<svg width="40" height="41" viewBox="0 0 40 41" fill="none" xmlns="http://www.w3.org/2000/svg">
<rect y="0.125" width="40" height="40" rx="2" fill="#4367AF"/>
<path d="M21.25 20.8496H23.125L23.875 17.8496H21.25V16.3496C21.25 16.0096 21.27 15.7646 21.31 15.6146C21.37 15.3746 21.5 15.1896 21.7 15.0596C21.93 14.9196 22.28 14.8496 22.75 14.8496H23.875V12.3296C23.705 12.3096 23.44 12.2896 23.08 12.2696C22.61 12.2396 22.16 12.2246 21.73 12.2246C21.05 12.2246 20.4475 12.3621 19.9225 12.6371C19.3975 12.9121 18.99 13.3046 18.7 13.8146C18.4 14.3646 18.25 15.0096 18.25 15.7496V17.8496H16V20.8496H18.25V27.2246H21.25V20.8496Z" fill="white"/>
</svg>
