<svg width="40" height="41" viewBox="0 0 40 41" fill="none" xmlns="http://www.w3.org/2000/svg">
<rect y="0.125" width="40" height="40" rx="2" fill="#4B76A6"/>
<g clip-path="url(#clip0_112_7517)">
<path d="M19.4774 15.3645C18.9961 15.353 18.5664 15.3587 18.1883 15.3816C17.8102 15.4046 17.5065 15.4676 17.2774 15.5707C17.1284 15.6395 17.0081 15.7368 16.9164 15.8629C16.8248 15.9889 16.8133 16.052 16.882 16.052C16.9623 16.0634 17.0854 16.0949 17.2516 16.1465C17.4177 16.198 17.5524 16.2983 17.6555 16.4473C17.793 16.6191 17.8703 16.854 17.8875 17.152C17.9047 17.4499 17.9133 17.5988 17.9133 17.5988C17.9133 17.5988 17.919 17.9798 17.9305 18.7418C17.9419 19.5038 17.8159 19.9592 17.5524 20.1082C17.3805 20.1999 17.1542 20.1168 16.8735 19.859C16.5927 19.6012 16.1888 19.0254 15.6617 18.1316C15.3982 17.6848 15.1748 17.2551 14.9914 16.8426C14.8081 16.4301 14.7164 16.2238 14.7164 16.2238C14.7164 16.2238 14.6992 16.1895 14.6649 16.1207C14.6305 16.052 14.5732 15.9947 14.493 15.9488C14.4128 15.8801 14.3268 15.8342 14.2352 15.8113C14.1435 15.7884 14.0977 15.777 14.0977 15.777L11.5711 15.7941C11.5711 15.7941 11.5052 15.8027 11.3735 15.8199C11.2417 15.8371 11.1414 15.8858 11.0727 15.966C11.0039 16.0462 10.9839 16.1408 11.0125 16.2496C11.0412 16.3585 11.0555 16.4129 11.0555 16.4129C11.0555 16.4129 11.1701 16.6592 11.3992 17.152C11.6284 17.6332 11.9349 18.2262 12.3188 18.9309C12.7026 19.6355 13.1466 20.3717 13.6508 21.1395C14.155 21.9186 14.6878 22.5889 15.2492 23.1504C15.7649 23.666 16.2805 24.0613 16.7961 24.3363C17.3117 24.5999 17.7787 24.7889 18.1969 24.9035C18.6151 25.0181 18.956 25.0754 19.2195 25.0754C19.4831 25.0868 19.6149 25.0926 19.6149 25.0926H20.6633C20.6633 25.0926 20.7235 25.0811 20.8438 25.0582C20.9641 25.0353 21.0643 24.978 21.1445 24.8863C21.2248 24.8061 21.2706 24.7116 21.282 24.6027C21.2935 24.4939 21.2992 24.4395 21.2992 24.4395C21.2992 24.4395 21.3222 24.2017 21.368 23.7262C21.4138 23.2507 21.6029 22.9613 21.9352 22.8582C22.256 22.7665 22.6169 22.99 23.018 23.5285C23.419 24.0671 23.8373 24.4853 24.2727 24.7832C24.605 25.0009 24.8857 25.1126 25.1149 25.1184C25.344 25.1241 25.4586 25.127 25.4586 25.127L27.8133 25.0926C27.8133 25.0926 27.9909 25.041 28.3461 24.9379C28.7013 24.8348 28.7357 24.5483 28.4492 24.0785C28.4263 24.0441 28.306 23.8665 28.0883 23.5457C27.8706 23.2249 27.4065 22.7436 26.6961 22.102C25.9628 21.4374 25.6419 20.9905 25.7336 20.7613C25.8253 20.5322 26.3123 19.8389 27.1945 18.6816C27.7331 17.9827 28.1141 17.4155 28.3375 16.9801C28.561 16.5447 28.6383 16.2353 28.5695 16.052C28.5123 15.8801 28.3461 15.7941 28.0711 15.7941C27.7961 15.7941 27.6586 15.7941 27.6586 15.7941L25.0117 15.8113C25.0117 15.8113 24.9716 15.8113 24.8914 15.8113C24.8112 15.8113 24.7367 15.8285 24.668 15.8629C24.5992 15.9087 24.5419 15.9689 24.4961 16.0434C24.4503 16.1178 24.4274 16.1551 24.4274 16.1551C24.4274 16.1551 24.3357 16.3728 24.1524 16.8082C23.969 17.2436 23.7399 17.6962 23.4649 18.166C22.869 19.14 22.4336 19.7215 22.1586 19.9105C21.8836 20.0996 21.7003 20.1598 21.6086 20.091C21.3909 19.9535 21.2792 19.7043 21.2735 19.3434C21.2677 18.9824 21.2649 18.653 21.2649 18.3551C21.2649 17.404 21.2792 16.7108 21.3078 16.2754C21.3365 15.84 21.1331 15.5707 20.6977 15.4676C20.5602 15.4332 20.4141 15.4074 20.2594 15.3902C20.1047 15.373 19.844 15.3645 19.4774 15.3645Z" fill="white"/>
</g>
<defs>
<clipPath id="clip0_112_7517">
<rect width="18" height="17.6" fill="white" transform="matrix(1 0 0 -1 11 28.9258)"/>
</clipPath>
</defs>
</svg>
