<svg width="40" height="41" viewBox="0 0 40 41" fill="none" xmlns="http://www.w3.org/2000/svg">
<rect y="0.125" width="40" height="40" rx="2" fill="#23A1EF"/>
<path d="M27.285 14.9709C26.715 15.2209 26.115 15.3859 25.485 15.4659C25.815 15.2659 26.0975 15.0159 26.3325 14.7159C26.5675 14.4159 26.745 14.0859 26.865 13.7259C26.245 14.0959 25.58 14.3509 24.87 14.4909C24.39 13.9709 23.7975 13.6534 23.0925 13.5384C22.3875 13.4234 21.7225 13.5334 21.0975 13.8684C20.4725 14.2034 20.015 14.6934 19.725 15.3384C19.435 15.9834 19.37 16.6509 19.53 17.3409C18.27 17.2809 17.0775 16.9659 15.9525 16.3959C14.8275 15.8259 13.865 15.0509 13.065 14.0709C12.785 14.5609 12.645 15.0859 12.645 15.6459C12.645 16.1859 12.77 16.6859 13.02 17.1459C13.27 17.6059 13.61 17.9759 14.04 18.2559C13.53 18.2459 13.055 18.1159 12.615 17.8659V17.9109C12.615 18.4009 12.7225 18.8609 12.9375 19.2909C13.1525 19.7209 13.45 20.0859 13.83 20.3859C14.21 20.6859 14.645 20.8859 15.135 20.9859C14.665 21.1059 14.19 21.1209 13.71 21.0309C13.92 21.6709 14.2925 22.1909 14.8275 22.5909C15.3625 22.9909 15.965 23.1959 16.635 23.2059C15.985 23.7259 15.2575 24.0984 14.4525 24.3234C13.6475 24.5484 12.83 24.6109 12 24.5109C12.72 24.9709 13.4875 25.3209 14.3025 25.5609C15.1175 25.8009 15.95 25.9209 16.8 25.9209C18.19 25.9209 19.47 25.6509 20.64 25.1109C21.71 24.6109 22.64 23.9109 23.43 23.0109C24.17 22.1709 24.745 21.2159 25.155 20.1459C25.535 19.1059 25.725 18.0559 25.725 16.9959C25.725 16.8759 25.725 16.7409 25.725 16.5909C26.345 16.1409 26.865 15.6009 27.285 14.9709Z" fill="white"/>
</svg>
