<svg width="64" height="64" viewBox="0 0 64 64" fill="none" xmlns="http://www.w3.org/2000/svg">
<rect x="8" width="56" height="56" rx="4" fill="#81C898"/>
<rect y="8" width="56" height="56" rx="4" fill="#08445F"/>
<path d="M33.4166 32.2505L23.5 38M23.5 38L13.5833 32.2505M23.5 38L23.5 49.5665M34 42.9414V33.0586C34 32.6414 34 32.4328 33.9411 32.2468C33.889 32.0822 33.8038 31.9311 33.6913 31.8037C33.564 31.6596 33.3893 31.5583 33.0399 31.3557L24.4065 26.3503C24.0757 26.1585 23.9102 26.0626 23.735 26.025C23.58 25.9917 23.42 25.9917 23.265 26.025C23.0898 26.0626 22.9243 26.1585 22.5935 26.3503L13.9601 31.3557C13.6107 31.5583 13.436 31.6596 13.3087 31.8037C13.1962 31.9311 13.111 32.0822 13.0589 32.2468C13 32.4328 13 32.6414 13 33.0586V42.9414C13 43.3586 13 43.5672 13.0589 43.7532C13.111 43.9178 13.1962 44.0689 13.3087 44.1963C13.436 44.3404 13.6107 44.4417 13.9601 44.6443L22.5935 49.6497C22.9243 49.8415 23.0898 49.9374 23.265 49.975C23.42 50.0083 23.58 50.0083 23.735 49.975C23.9102 49.9374 24.0757 49.8415 24.4065 49.6497L33.0399 44.6443C33.3893 44.4417 33.564 44.3404 33.6913 44.1963C33.8038 44.0689 33.889 43.9178 33.9411 43.7532C34 43.5672 34 43.3586 34 42.9414Z" stroke="white" stroke-width="2.3" stroke-linecap="round" stroke-linejoin="round"/>
<path d="M41.75 22.6044L37.5 25M37.5 25L33.25 22.6044M37.5 25L37.5 29.8194M42 27.0589V22.9411C42 22.7673 42 22.6803 41.9748 22.6028C41.9524 22.5343 41.9159 22.4713 41.8677 22.4182C41.8132 22.3582 41.7383 22.316 41.5885 22.2315L37.8885 20.146C37.7467 20.066 37.6758 20.0261 37.6007 20.0104C37.5343 19.9965 37.4657 19.9965 37.3993 20.0104C37.3242 20.0261 37.2533 20.066 37.1115 20.146L33.4115 22.2315C33.2617 22.316 33.1868 22.3582 33.1323 22.4182C33.0841 22.4713 33.0476 22.5343 33.0252 22.6028C33 22.6803 33 22.7673 33 22.9411V27.0589C33 27.2327 33 27.3197 33.0252 27.3972C33.0476 27.4657 33.0841 27.5287 33.1323 27.5818C33.1868 27.6418 33.2617 27.684 33.4115 27.7685L37.1115 29.854C37.2533 29.934 37.3242 29.9739 37.3993 29.9896C37.4657 30.0035 37.5343 30.0035 37.6007 29.9896C37.6758 29.9739 37.7467 29.934 37.8885 29.854L41.5885 27.7685C41.7383 27.684 41.8132 27.6418 41.8677 27.5818C41.9159 27.5287 41.9524 27.4657 41.9748 27.3972C42 27.3197 42 27.2327 42 27.0589Z" stroke="white" stroke-linecap="round" stroke-linejoin="round"/>
</svg>
