<svg width="64" height="64" viewBox="0 0 64 64" fill="none" xmlns="http://www.w3.org/2000/svg">
<rect x="8" width="56" height="56" rx="4" fill="#81C898"/>
<rect y="8" width="56" height="56" rx="4" fill="#08445F"/>
<path d="M42.6025 37.875L40.7364 36.5625C40.7364 36.375 40.7364 36.0937 40.7364 35.9062C40.7364 35.7187 40.7364 35.4375 40.7364 35.25L42.6025 33.9375C42.8824 33.75 43.069 33.375 42.9757 33C42.6958 31.875 42.3226 30.6562 41.8561 29.625C41.6694 29.3437 41.3895 29.0625 41.0163 29.0625L38.6836 29.1562C38.4037 28.7812 38.2171 28.4062 37.8439 28.0312L38.5903 25.875C38.6836 25.5 38.5903 25.125 38.3104 24.8437C37.3773 24 36.4443 23.3438 35.3246 22.7813C35.0447 22.5938 34.5781 22.5938 34.2982 22.875L32.4321 24.2812C31.9655 24.0938 31.5923 24 31.1258 23.9062L30.4726 21.75C30.3793 21.375 30.0994 21.0937 29.7262 21.0937C29.073 21 28.5132 21 27.9533 21C27.3935 21 26.7404 21 26.1805 21.0937C25.8073 21.0937 25.5274 21.375 25.4341 21.75L24.7809 23.9062C24.3144 24 23.9412 24.1875 23.4746 24.375L21.6085 22.9687C21.3286 22.7812 20.9553 22.6875 20.5821 22.875C19.5557 23.4375 18.5294 24.1875 17.6896 25.0313C17.4097 25.3125 17.3164 25.6875 17.4097 26.0625L18.1561 28.2187C17.8762 28.5937 17.5963 28.9688 17.3164 29.3438L14.9837 29.25C14.6105 29.25 14.3306 29.4375 14.1439 29.8125C13.6774 30.9375 13.3042 32.0625 13.0243 33.1875C12.931 33.5625 13.1176 33.9375 13.3975 34.125L15.2636 35.4375C15.2636 35.625 15.2636 35.9063 15.2636 36.0938C15.2636 36.2813 15.2636 36.5625 15.2636 36.75L13.3975 38.0625C13.1176 38.25 12.931 38.625 13.0243 39C13.3042 40.2187 13.6774 41.3438 14.1439 42.375C14.3306 42.75 14.6105 42.9375 14.9837 42.9375L17.3164 42.8438C17.5963 43.2188 17.8762 43.5938 18.1561 43.9688L17.4097 46.125C17.3164 46.5 17.4097 46.875 17.6896 47.1562C18.6227 48 19.5557 48.6563 20.5821 49.2188C20.862 49.4063 21.3286 49.4062 21.6085 49.125L23.4746 47.7188C23.9412 47.9062 24.3144 48 24.7809 48.0937L25.4341 50.25C25.5274 50.625 25.8073 50.9062 26.1805 50.9062C26.8337 51 27.3935 51 27.9533 51C28.5132 51 29.1663 51 29.7262 50.9062C30.0994 50.9062 30.3793 50.625 30.4726 50.25L31.1258 48.0937C31.5923 48 31.9655 47.8125 32.4321 47.625L34.2982 49.0312C34.5781 49.2187 34.9514 49.3125 35.3246 49.125C36.351 48.5625 37.3773 47.8125 38.2171 46.9687C38.497 46.6875 38.5903 46.3125 38.497 45.9375L37.7505 43.7813C38.0305 43.4063 38.3104 43.0313 38.497 42.6563L40.8297 42.75C41.2029 42.75 41.5761 42.5625 41.6694 42.1875C42.136 41.0625 42.5092 39.9375 42.7891 38.8125C43.069 38.5312 42.8824 38.1562 42.6025 37.875ZM40.3631 40.9688L38.1238 40.875C37.7506 40.875 37.4706 41.0625 37.284 41.3437C36.9108 41.9062 36.5376 42.4688 36.071 43.0312C35.8844 43.3125 35.7911 43.6875 35.8844 43.9688L36.6309 46.0312C36.1643 46.4062 35.6045 46.875 35.0447 47.1562L33.2718 45.8438C32.9919 45.6562 32.6187 45.5625 32.3388 45.75C31.6856 46.0312 31.0325 46.2188 30.286 46.4063C29.9128 46.5 29.7262 46.6875 29.6329 47.0625L28.9797 49.125C28.6065 49.125 28.3266 49.125 27.9533 49.125C27.5801 49.125 27.3002 49.125 26.927 49.125L26.2738 47.0625C26.1805 46.7813 25.9006 46.5 25.5274 46.4063C24.8742 46.2188 24.1278 46.0312 23.4746 45.75C23.1947 45.6562 22.8215 45.6562 22.5416 45.8438L20.7687 47.1562C20.2089 46.7812 19.649 46.4062 19.1825 46.0312L19.929 43.9688C20.0223 43.6875 19.929 43.3125 19.7424 43.0312C19.2758 42.5625 18.8093 42 18.5294 41.3437C18.3428 41.0625 18.0628 40.875 17.6896 40.875L15.4502 40.9688C15.1703 40.4063 14.9837 39.75 14.7971 39.1875L16.5699 37.9688C16.8498 37.7813 17.0365 37.4062 16.9432 37.125C16.9432 36.75 16.8498 36.4688 16.8498 36.0938C16.8498 35.7188 16.8498 35.4375 16.9432 35.0625C16.9432 34.6875 16.8498 34.4063 16.5699 34.2188L14.7971 33C14.9837 32.3438 15.1703 31.7813 15.3569 31.2188L17.5963 31.3125C17.9695 31.3125 18.2494 31.125 18.4361 30.8438C18.8093 30.2812 19.1825 29.7187 19.649 29.1562C19.8357 28.875 19.929 28.5 19.8357 28.2187L19.0892 26.1562C19.5557 25.7812 20.1156 25.3125 20.6754 25.0313L22.4482 26.3437C22.7282 26.5312 23.1014 26.625 23.3813 26.4375C24.0345 26.1563 24.6876 25.9687 25.4341 25.7812C25.8073 25.6875 25.9939 25.5 26.0872 25.125L26.7404 23.0625C27.1136 23.0625 27.3935 23.0625 27.7667 23.0625C28.14 23.0625 28.4199 23.0625 28.7931 23.0625L29.4463 25.125C29.5396 25.4063 29.8195 25.6875 30.1927 25.7812C30.8459 25.9687 31.5923 26.1563 32.2455 26.4375C32.5254 26.5313 32.8986 26.5312 33.1785 26.3437L34.9513 25.0313C35.5112 25.4063 36.071 25.7812 36.5376 26.1562L35.7911 28.2187C35.6978 28.5 35.7911 28.875 35.9777 29.1562C36.4443 29.7187 36.9108 30.2812 37.1907 30.8438C37.3773 31.125 37.6572 31.3125 38.0305 31.3125L40.2698 31.2188C40.5498 31.7813 40.7364 32.4375 40.8297 33L39.0568 34.2188C38.7769 34.4063 38.5903 34.7812 38.6836 35.0625C38.6836 35.4375 38.7769 35.7188 38.7769 36.0938C38.7769 36.4688 38.7769 36.75 38.6836 37.125C38.6836 37.5 38.7769 37.7813 39.0568 37.9688L40.8297 39.1875C40.8297 39.75 40.6431 40.3125 40.3631 40.9688Z" fill="white"/>
<path d="M34.8937 36C34.8937 39.8682 31.7733 43 27.9291 43C24.085 43 20.9646 39.8682 20.9646 36C20.9646 32.1318 24.085 29 27.9291 29C31.7733 29 34.8937 32.1318 34.8937 36Z" stroke="white"/>
</svg>
