<svg width="64" height="64" viewBox="0 0 64 64" fill="none" xmlns="http://www.w3.org/2000/svg">
<rect x="8" width="56" height="56" rx="4" fill="#81C898"/>
<rect y="8" width="56" height="56" rx="4" fill="#08445F"/>
<path d="M19.4405 35.608L19.4404 35.6079C18.3345 33.9356 17.75 31.9875 17.75 29.9749C17.75 24.3366 22.3366 19.75 27.9749 19.75C33.6132 19.75 38.1998 24.3355 38.1988 29.9739L19.4405 35.608ZM19.4405 35.608C19.7228 36.0344 20.2977 36.153 20.7258 35.8704L20.7261 35.8702M19.4405 35.608L20.7261 35.8702M20.7261 35.8702C21.1525 35.5879 21.271 35.013 20.9885 34.5849L20.9884 34.5848M20.7261 35.8702L20.9884 34.5848M20.9884 34.5848C20.0837 33.2167 19.606 31.6231 19.606 29.9749C19.606 25.3601 23.3611 21.605 27.976 21.605C32.5908 21.605 36.3459 25.3601 36.3459 29.9749C36.3459 31.6452 35.8551 33.257 34.9271 34.6374L34.9265 34.6382M20.9884 34.5848L34.9265 34.6382M34.9265 34.6382C34.883 34.7035 34.8492 34.772 34.8242 34.842C34.7516 34.8998 34.6868 34.9691 34.6324 35.0497L34.6317 35.0507M34.9265 34.6382L34.6317 35.0507M34.6317 35.0507L28.085 44.8465L23.1223 37.8838C23.1223 37.8838 23.1223 37.8838 23.1222 37.8838C22.8251 37.4667 22.2459 37.3703 21.8286 37.6666L21.8282 37.6668M34.6317 35.0507L21.8282 37.6668M21.8282 37.6668C21.4116 37.9636 21.3131 38.5429 21.6113 38.961L21.6114 38.9611M21.8282 37.6668L21.6114 38.9611M21.6114 38.9611L27.3534 47.0004C27.5352 47.2551 27.8228 47.372 28.1083 47.372H28.1084H28.1084H28.1084H28.1084H28.1084H28.1084H28.1085H28.1085H28.1085H28.1085H28.1085H28.1086H28.1086H28.1086H28.1086H28.1086H28.1087H28.1087H28.1087H28.1087H28.1087H28.1087H28.1088H28.1088H28.1088H28.1088H28.1088H28.1089H28.1089H28.1089H28.1089H28.1089H28.109H28.109H28.109H28.109H28.109H28.109H28.1091H28.1091H28.1091H28.1091H28.1091H28.1092H28.1092H28.1092H28.1092H28.1092H28.1093H28.1093H28.1093H28.1093H28.1093H28.1094H28.1094H28.1094H28.1094H28.1094H28.1095H28.1095H28.1095H28.1095H28.1095H28.1096H28.1096H28.1096H28.1096H28.1096H28.1097H28.1097H28.1097H28.1097H28.1097H28.1098H28.1098H28.1098H28.1098H28.1098H28.1098H28.1099H28.1099H28.1099H28.1099H28.11H28.11H28.11H28.11H28.11H28.1101H28.1101H28.1101H28.1101H28.1101H28.1102H28.1102H28.1102H28.1102H28.1102H28.1103H28.1103H28.1103H28.1103H28.1103H28.1104H28.1104H28.1104H28.1104H28.1104H28.1105H28.1105H28.1105H28.1105H28.1105H28.1106H28.1106H28.1106H28.1106H28.1106H28.1107H28.1107H28.1107H28.1107H28.1107H28.1108H28.1108H28.1108H28.1108H28.1108H28.1109H28.1109H28.1109H28.1109H28.1109H28.111H28.111H28.111H28.111H28.1111H28.1111H28.1111H28.1111H28.1111H28.1112H28.1112H28.1112H28.1112H28.1112H28.1113H28.1113H28.1113H28.1113H28.1113H28.1114H28.1114H28.1114H28.1114H28.1114H28.1115H28.1115H28.1115H28.1115H28.1116H28.1116H28.1116H28.1116H28.1116H28.1117H28.1117H28.1117H28.1117H28.1117H28.1118H28.1118H28.1118H28.1118H28.1118H28.1119H28.1119H28.1119H28.1119H28.112H28.112H28.112H28.112H28.112H28.1121H28.1121H28.1121H28.1121H28.1121H28.1122H28.1122H28.1122H28.1122H28.1123H28.1123H28.1123H28.1123H28.1123H28.1124H28.1124H28.1124H28.1124H28.1124H28.1125H28.1125H28.1125H28.1125H28.1125H28.1126H28.1126H28.1126H28.1126H28.1127H28.1127H28.1127H28.1127H28.1127H28.1128H28.1128H28.1128H28.1128H28.1128H28.1129H28.1129H28.1129H28.1129H28.113H28.113H28.113H28.113H28.113H28.1131H28.1131H28.1131H28.1131H28.1131H28.1132H28.1132H28.1132H28.1132H28.1133H28.1133H28.1133H28.1133H28.1133H28.1134H28.1134H28.1134H28.1134H28.1134H28.1135H28.1135H28.1135H28.1135H28.1136H28.1136H28.1136H28.1136H28.1136H28.1137H28.1137H28.1137H28.1137H28.1137H28.1138H28.1138H28.1138H28.1138H28.1139H28.1139H28.1139H28.1139H28.1139H28.114H28.114H28.114H28.114H28.114H28.1141H28.1141H28.1141H28.1141H28.1142H28.1142H28.1142H28.1142H28.1142H28.1143H28.1143H28.1143H28.1143H28.1143H28.1144H28.1144H28.1144H28.1144H28.1144H28.1145H28.1145H28.1145H28.1145H28.1146H28.1146H28.1146H28.1146H28.1146H28.1147H28.1147H28.1147H28.1147H28.1147H28.1148H28.1148H28.1148H28.1148H28.1149H28.1149H28.1149H28.1149H28.1149H28.115H28.115H28.115H28.115H28.115H28.1151H28.1151H28.1151H28.1151H28.1152H28.1152H28.1152H28.1152H28.1152H28.1153H28.1153H28.1153H28.1153H28.1153H28.1154H28.1154H28.1154H28.1154H28.1154H28.1155H28.1155H28.1155H28.1155H28.1156H28.1156H28.1156H28.1156H28.1156H28.1157H28.1157H28.1157H28.1157H28.1157H28.1158H28.1158H28.1158H28.1158H28.1158H28.1159H28.1159H28.1159H28.1159H28.1159H28.116H28.116H28.116H28.116H28.1161H28.1161H28.1161H28.1161H28.1161H28.1162H28.1162H28.1162H28.1162H28.1162H28.1163H28.1163H28.1163H28.1163H28.1163H28.1164H28.1164H28.1164H28.1164H28.1164H28.1165H28.1165H28.1165H28.1165H28.1165H28.1166H28.1166H28.1166H28.1166H28.1166H28.1167H28.1167H28.1167H28.1167H28.1168H28.1168H28.1168H28.1168H28.1168H28.1169H28.1169H28.1169H28.1169H28.1169H28.117H28.117H28.117H28.117H28.117H28.1171H28.1171H28.1171H28.1171H28.1171H28.1172H28.1172H28.1172H28.1172H28.1172H28.1173H28.1173H28.1173H28.1173H28.1173H28.1174H28.1174H28.1174H28.1174H28.1174H28.1175H28.1175H28.1175H28.1175H28.1175H28.1176H28.1176H28.1176H28.1176H28.1176H28.1176H28.1177H28.1177H28.1177H28.1177H28.1177H28.1178H28.1178H28.1178H28.1178H28.1178H28.1179H28.1179H28.1179H28.1179H28.1179H28.118H28.118H28.118H28.118H28.118H28.1181H28.1181H28.1181H28.1181H28.1181H28.1182H28.1182H28.1182H28.1182H28.1182H28.1182H28.1183H28.1183H28.1183H28.1183H28.1183H28.1184H28.1184H28.1184H28.1184H28.1184H28.1185H28.1185H28.1185H28.1185H28.1185H28.1185H28.1186H28.1186H28.1186H28.1186H28.1186H28.1187H28.1187H28.1187H28.1187H28.1187H28.1188H28.1188C28.4154 47.372 28.7044 47.2402 28.88 46.9775C28.88 46.9775 28.88 46.9774 28.88 46.9774L36.1731 36.0739L36.1733 36.0735M21.6114 38.9611L36.1733 36.0735M36.1733 36.0735C36.2159 36.0096 36.2493 35.9442 36.2743 35.8752M36.1733 36.0735L36.2743 35.8752M36.2743 35.8752C36.3444 35.82 36.4096 35.7529 36.4646 35.671L36.2743 35.8752ZM36.4647 35.6708C37.5994 33.9836 38.1988 32.0141 38.1988 29.9739L36.4647 35.6708Z" fill="white" stroke="white" stroke-width="0.5"/>
<path d="M19.5656 35.5252L19.5655 35.5252C18.4759 33.8775 17.9 31.9582 17.9 29.9749C17.9 24.4194 22.4194 19.9 27.9749 19.9C33.5304 19.9 38.0498 24.4184 38.0488 29.9739C38.0488 31.9845 37.4582 33.9249 36.3402 35.5872L19.5656 35.5252ZM19.5656 35.5252C19.8023 35.8827 20.2843 35.9821 20.6432 35.7452L20.6433 35.7451M19.5656 35.5252L20.6433 35.7451M20.6433 35.7451C21.0008 35.5084 21.1001 35.0264 20.8633 34.6676L20.8633 34.6675M20.6433 35.7451L20.8633 34.6675M20.8633 34.6675C19.9423 33.2747 19.456 31.6523 19.456 29.9749C19.456 25.2772 23.2782 21.455 27.976 21.455C32.6737 21.455 36.4959 25.2772 36.4959 29.9749C36.4959 31.6749 35.9962 33.3159 35.0516 34.7211L35.0513 34.7214M20.8633 34.6675L35.0513 34.7214M35.0513 34.7214C35.0065 34.7887 34.9739 34.8602 34.952 34.9335C34.8771 34.9866 34.8109 35.0534 34.7567 35.1336L34.7565 35.134M35.0513 34.7214L34.7565 35.134M34.7565 35.134L28.089 45.1105L23.0001 37.9708C23.0001 37.9708 23.0001 37.9708 23.0001 37.9708C22.7511 37.6214 22.2656 37.5403 21.9154 37.7889L21.9153 37.789M34.7565 35.134L21.9153 37.789M21.9153 37.789C21.566 38.0378 21.4835 38.5234 21.7335 38.8739L21.7335 38.8739M21.9153 37.789L21.7335 38.8739M21.7335 38.8739L27.4755 46.9132C27.4756 46.9133 27.4756 46.9133 27.4756 46.9133C27.6246 47.1221 27.8628 47.222 28.1083 47.222H28.1084H28.1084H28.1084H28.1084H28.1084H28.1084H28.1085H28.1085H28.1085H28.1085H28.1085H28.1086H28.1086H28.1086H28.1086H28.1086H28.1087H28.1087H28.1087H28.1087H28.1087H28.1087H28.1088H28.1088H28.1088H28.1088H28.1088H28.1089H28.1089H28.1089H28.1089H28.1089H28.109H28.109H28.109H28.109H28.109H28.109H28.1091H28.1091H28.1091H28.1091H28.1091H28.1092H28.1092H28.1092H28.1092H28.1092H28.1093H28.1093H28.1093H28.1093H28.1093H28.1094H28.1094H28.1094H28.1094H28.1094H28.1095H28.1095H28.1095H28.1095H28.1095H28.1096H28.1096H28.1096H28.1096H28.1096H28.1097H28.1097H28.1097H28.1097H28.1097H28.1098H28.1098H28.1098H28.1098H28.1098H28.1098H28.1099H28.1099H28.1099H28.1099H28.11H28.11H28.11H28.11H28.11H28.1101H28.1101H28.1101H28.1101H28.1101H28.1102H28.1102H28.1102H28.1102H28.1102H28.1103H28.1103H28.1103H28.1103H28.1103H28.1104H28.1104H28.1104H28.1104H28.1104H28.1105H28.1105H28.1105H28.1105H28.1105H28.1106H28.1106H28.1106H28.1106H28.1106H28.1107H28.1107H28.1107H28.1107H28.1107H28.1108H28.1108H28.1108H28.1108H28.1108H28.1109H28.1109H28.1109H28.1109H28.1109H28.111H28.111H28.111H28.111H28.1111H28.1111H28.1111H28.1111H28.1111H28.1112H28.1112H28.1112H28.1112H28.1112H28.1113H28.1113H28.1113H28.1113H28.1113H28.1114H28.1114H28.1114H28.1114H28.1114H28.1115H28.1115H28.1115H28.1115H28.1116H28.1116H28.1116H28.1116H28.1116H28.1117H28.1117H28.1117H28.1117H28.1117H28.1118H28.1118H28.1118H28.1118H28.1118H28.1119H28.1119H28.1119H28.1119H28.112H28.112H28.112H28.112H28.112H28.1121H28.1121H28.1121H28.1121H28.1121H28.1122H28.1122H28.1122H28.1122H28.1123H28.1123H28.1123H28.1123H28.1123H28.1124H28.1124H28.1124H28.1124H28.1124H28.1125H28.1125H28.1125H28.1125H28.1125H28.1126H28.1126H28.1126H28.1126H28.1127H28.1127H28.1127H28.1127H28.1127H28.1128H28.1128H28.1128H28.1128H28.1128H28.1129H28.1129H28.1129H28.1129H28.113H28.113H28.113H28.113H28.113H28.1131H28.1131H28.1131H28.1131H28.1131H28.1132H28.1132H28.1132H28.1132H28.1133H28.1133H28.1133H28.1133H28.1133H28.1134H28.1134H28.1134H28.1134H28.1134H28.1135H28.1135H28.1135H28.1135H28.1136H28.1136H28.1136H28.1136H28.1136H28.1137H28.1137H28.1137H28.1137H28.1137H28.1138H28.1138H28.1138H28.1138H28.1139H28.1139H28.1139H28.1139H28.1139H28.114H28.114H28.114H28.114H28.114H28.1141H28.1141H28.1141H28.1141H28.1142H28.1142H28.1142H28.1142H28.1142H28.1143H28.1143H28.1143H28.1143H28.1143H28.1144H28.1144H28.1144H28.1144H28.1144H28.1145H28.1145H28.1145H28.1145H28.1146H28.1146H28.1146H28.1146H28.1146H28.1147H28.1147H28.1147H28.1147H28.1147H28.1148H28.1148H28.1148H28.1148H28.1149H28.1149H28.1149H28.1149H28.1149H28.115H28.115H28.115H28.115H28.115H28.1151H28.1151H28.1151H28.1151H28.1152H28.1152H28.1152H28.1152H28.1152H28.1153H28.1153H28.1153H28.1153H28.1153H28.1154H28.1154H28.1154H28.1154H28.1154H28.1155H28.1155H28.1155H28.1155H28.1156H28.1156H28.1156H28.1156H28.1156H28.1157H28.1157H28.1157H28.1157H28.1157H28.1158H28.1158H28.1158H28.1158H28.1158H28.1159H28.1159H28.1159H28.1159H28.1159H28.116H28.116H28.116H28.116H28.1161H28.1161H28.1161H28.1161H28.1161H28.1162H28.1162H28.1162H28.1162H28.1162H28.1163H28.1163H28.1163H28.1163H28.1163H28.1164H28.1164H28.1164H28.1164H28.1164H28.1165H28.1165H28.1165H28.1165H28.1165H28.1166H28.1166H28.1166H28.1166H28.1166H28.1167H28.1167H28.1167H28.1167H28.1168H28.1168H28.1168H28.1168H28.1168H28.1169H28.1169H28.1169H28.1169H28.1169H28.117H28.117H28.117H28.117H28.117H28.1171H28.1171H28.1171H28.1171H28.1171H28.1172H28.1172H28.1172H28.1172H28.1172H28.1173H28.1173H28.1173H28.1173H28.1173H28.1174H28.1174H28.1174H28.1174H28.1174H28.1175H28.1175H28.1175H28.1175H28.1175H28.1176H28.1176H28.1176H28.1176H28.1176H28.1176H28.1177H28.1177H28.1177H28.1177H28.1177H28.1178H28.1178H28.1178H28.1178H28.1178H28.1179H28.1179H28.1179H28.1179H28.1179H28.118H28.118H28.118H28.118H28.118H28.1181H28.1181H28.1181H28.1181H28.1181H28.1182H28.1182H28.1182H28.1182H28.1182H28.1182H28.1183H28.1183H28.1183H28.1183H28.1183H28.1184H28.1184H28.1184H28.1184H28.1184H28.1185H28.1185H28.1185H28.1185H28.1185H28.1185H28.1186H28.1186H28.1186H28.1186H28.1186H28.1187H28.1187H28.1187H28.1187H28.1187H28.1188H28.1188C28.3713 47.222 28.6107 47.1105 28.7553 46.8941C28.7553 46.8941 28.7553 46.8941 28.7554 46.8941L36.0484 35.9905L36.0485 35.9903M21.7335 38.8739L36.0485 35.9903M36.0485 35.9903C36.093 35.9236 36.125 35.8561 36.1468 35.7833M36.0485 35.9903L36.1468 35.7833M36.1468 35.7833C36.2196 35.7317 36.2861 35.6678 36.3401 35.5873L36.1468 35.7833Z" fill="white" stroke="white" stroke-width="0.2"/>
<circle cx="28" cy="30" r="4.5" stroke="white"/>
<path fill-rule="evenodd" clip-rule="evenodd" d="M29.4377 45.8045C29.645 45.4909 29.4537 45.0703 29.0789 45.0413C28.7272 45.0141 28.3669 45 28 45C27.7003 45 27.4049 45.0094 27.1151 45.0277C26.7295 45.052 26.5354 45.4884 26.758 45.8042C26.8627 45.9528 27.0382 46.034 27.2196 46.0231C27.4745 46.0079 27.7349 46 28 46C28.328 46 28.6487 46.0121 28.9606 46.0352C29.1497 46.0492 29.3332 45.9627 29.4377 45.8045ZM31.6668 46.5702C31.3491 46.4596 31.204 46.0799 31.3895 45.7994C31.5091 45.6186 31.7335 45.5363 31.9387 45.6062C33.7867 46.2362 35 47.2973 35 48.5C35 50.433 31.866 52 28 52C24.134 52 21 50.433 21 48.5C21 47.2698 22.2693 46.1879 24.1887 45.5638C24.3871 45.4993 24.6027 45.576 24.723 45.7464C24.9221 46.0283 24.7751 46.4226 24.4475 46.5313C24.1011 46.6464 23.7828 46.7769 23.4975 46.9196C22.337 47.4998 22 48.1163 22 48.5C22 48.8837 22.337 49.5002 23.4975 50.0804C24.5981 50.6308 26.1886 51 28 51C29.8114 51 31.4019 50.6308 32.5025 50.0804C33.663 49.5002 34 48.8837 34 48.5C34 48.1163 33.663 47.4998 32.5025 46.9196C32.2489 46.7927 31.9692 46.6755 31.6668 46.5702Z" fill="white"/>
</svg>
