<svg width="64" height="64" viewBox="0 0 64 64" fill="none" xmlns="http://www.w3.org/2000/svg">
<rect x="8" width="56" height="56" rx="4" fill="#81C898"/>
<rect y="8" width="56" height="56" rx="4" fill="#08445F"/>
<path d="M27.9442 49.6974L27.944 49.6973C27.9425 49.6968 27.9325 49.6931 27.9085 49.6813C27.846 49.6506 27.7645 49.6034 27.5782 49.4937C26.1183 48.6331 23.4037 46.8616 21.0692 44.4043C18.7212 41.9326 16.9 38.9196 16.9 35.5551V28.0651C16.9 26.7074 16.9201 26.3701 17.0192 26.1068C17.1245 25.8274 17.295 25.5793 17.5149 25.3836C17.7199 25.201 18.0192 25.0655 19.279 24.5881L27.5898 21.4391C27.7607 21.3744 27.852 21.34 27.9212 21.3171C27.9494 21.3078 27.9649 21.3035 27.9715 21.3017C27.9904 21.2994 28.0095 21.2994 28.0285 21.3017C28.0351 21.3035 28.0506 21.3078 28.0787 21.3171C28.1479 21.34 28.2392 21.3744 28.4101 21.4391L36.7209 24.5881C37.9808 25.0655 38.2801 25.201 38.4851 25.3836C38.7049 25.5793 38.8755 25.8274 38.9807 26.1068C39.0798 26.3701 39.1 26.7074 39.1 28.0651V35.5551C39.1 38.9196 37.2787 41.9326 34.9307 44.4043C32.5963 46.8616 29.8816 48.6331 28.4217 49.4937C28.2355 49.6034 28.1539 49.6506 28.0914 49.6813C28.0675 49.6931 28.0575 49.6968 28.056 49.6973L28.0559 49.6974L27.9442 49.6974ZM27.9442 49.6974C27.9456 49.6975 27.9472 49.6977 27.949 49.6979C27.9617 49.6991 27.9795 49.7 28 49.7C28.0205 49.7 28.0382 49.6991 28.0509 49.6979C28.0528 49.6977 28.0544 49.6975 28.0557 49.6974M27.9442 49.6974H28.0557M28.0557 49.6974C28.0644 49.6965 28.062 49.6963 28.0497 49.6989C28.054 49.698 28.0552 49.6976 28.0557 49.6974Z" stroke="white" stroke-width="2.6" stroke-linecap="round" stroke-linejoin="round"/>
<path d="M29.5499 28.5074L24.8999 33.2059L31.0999 36.3383L26.4499 41.0367" stroke="white" stroke-width="1.2" stroke-linecap="round" stroke-linejoin="round"/>
</svg>
