<svg width="40" height="44" viewBox="0 0 40 44" fill="none" xmlns="http://www.w3.org/2000/svg">
<path d="M0 4C0 1.79086 1.79086 0 4 0H36C38.2091 0 40 1.79086 40 4V40C40 42.2091 38.2091 44 36 44H4C1.79086 44 0 42.2091 0 40V4Z" fill="white"/>
<path d="M18.5332 28.8823C18.8527 29.2463 18.8543 29.7903 18.537 30.1561C18.1508 30.6015 17.4596 30.6015 17.0734 30.1561L10 22L17.0734 13.8439C17.4596 13.3985 18.1508 13.3985 18.537 13.8439C18.8543 14.2097 18.8527 14.7537 18.5332 15.1177L13.4113 20.9517L28.9517 20.9517C29.5307 20.9517 30 21.421 30 22C30 22.5789 29.5307 23.0482 28.9518 23.0482L13.4113 23.0482L18.5332 28.8823Z" fill="#08445F"/>
</svg>
