<svg width="100" height="100" viewBox="0 0 100 100" fill="none" xmlns="http://www.w3.org/2000/svg">
<g opacity="0.8">
<path fill-rule="evenodd" clip-rule="evenodd" d="M84.4743 44.3561C85.4069 43.3474 85.0683 41.7203 83.8107 41.1675L27.3323 16.3392C25.31 15.4502 22.9498 16.3689 22.0608 18.3913L13.6096 37.6157C12.7206 39.638 13.6393 41.9982 15.6617 42.8872L64.2482 64.2462C65.0293 64.5896 65.9423 64.3996 66.5216 63.773L69.1441 60.9366L79.9243 65.6757C80.9354 66.1202 82.1155 65.6608 82.56 64.6497L87.7917 52.7488C88.2362 51.7377 87.7769 50.5576 86.7657 50.1131L81.3519 47.7331L84.4743 44.3561ZM73.4364 43.1611C74.9532 43.8279 75.6422 45.598 74.9755 47.1147C74.3087 48.6315 72.5386 49.3205 71.0218 48.6538C69.505 47.987 68.816 46.2169 69.4828 44.7001C70.1495 43.1833 71.9197 42.4943 73.4364 43.1611ZM48.9495 64.0749L50.2177 61.1901L25.5006 50.3243L24.2324 53.2091C23.3433 55.2315 24.2621 57.5916 26.2844 58.4807L29.2822 59.7985L27.9683 62.6167C26.6544 65.4351 23.8265 67.2368 20.7169 67.2368H17.5H17L17 62.2295C17 60.8488 15.8807 59.7295 14.5 59.7295C13.1193 59.7295 12 60.8488 12 62.2295V82.2295C12 83.6102 13.1193 84.7295 14.5 84.7295C15.8807 84.7295 17 83.6102 17 82.2295V77.2368H17.5H20.7169C27.7131 77.2368 34.0755 73.1831 37.0317 66.8422L38.4389 63.8239L43.6779 66.127C45.7003 67.016 48.0604 66.0973 48.9495 64.0749Z" fill="white"/>
</g>
</svg>
