<svg width="100" height="100" viewBox="0 0 100 100" fill="none" xmlns="http://www.w3.org/2000/svg">
<g opacity="0.8">
<path fill-rule="evenodd" clip-rule="evenodd" d="M15 15C12.2386 15 10 17.2386 10 20V30C10 32.7614 12.2386 35 15 35H85C87.7614 35 90 32.7614 90 30V20C90 17.2386 87.7614 15 85 15H15ZM73 22C73 21.4477 73.4477 21 74 21H76C76.5523 21 77 21.4477 77 22C77 22.5523 76.5523 23 76 23H74C73.4477 23 73 22.5523 73 22ZM18 22C16.3431 22 15 23.3431 15 25C15 26.6569 16.3431 28 18 28C19.6569 28 21 26.6569 21 25C21 23.3431 19.6569 22 18 22ZM48 22C46.3431 22 45 23.3431 45 25C45 26.6569 46.3431 28 48 28H65C66.6569 28 68 26.6569 68 25C68 23.3431 66.6569 22 65 22H48ZM74 26C73.4477 26 73 26.4477 73 27C73 27.5523 73.4477 28 74 28H76C76.5523 28 77 27.5523 77 27C77 26.4477 76.5523 26 76 26H74ZM25 25C25 23.3431 26.3431 22 28 22C29.6569 22 31 23.3431 31 25C31 26.6569 29.6569 28 28 28C26.3431 28 25 26.6569 25 25ZM82 21C81.4477 21 81 21.4477 81 22C81 22.5523 81.4477 23 82 23H84C84.5523 23 85 22.5523 85 22C85 21.4477 84.5523 21 84 21H82ZM81 27C81 26.4477 81.4477 26 82 26H84C84.5523 26 85 26.4477 85 27C85 27.5523 84.5523 28 84 28H82C81.4477 28 81 27.5523 81 27ZM15 38C12.2386 38 10 40.2386 10 43V53C10 55.7614 12.2386 58 15 58H85C87.7614 58 90 55.7614 90 53V43C90 40.2386 87.7614 38 85 38H15ZM73 45C73 44.4477 73.4477 44 74 44H76C76.5523 44 77 44.4477 77 45C77 45.5523 76.5523 46 76 46H74C73.4477 46 73 45.5523 73 45ZM18 45C16.3431 45 15 46.3431 15 48C15 49.6569 16.3431 51 18 51C19.6569 51 21 49.6569 21 48C21 46.3431 19.6569 45 18 45ZM48 45C46.3431 45 45 46.3431 45 48C45 49.6569 46.3431 51 48 51H65C66.6569 51 68 49.6569 68 48C68 46.3431 66.6569 45 65 45H48ZM74 49C73.4477 49 73 49.4477 73 50C73 50.5523 73.4477 51 74 51H76C76.5523 51 77 50.5523 77 50C77 49.4477 76.5523 49 76 49H74ZM25 48C25 46.3431 26.3431 45 28 45C29.6569 45 31 46.3431 31 48C31 49.6569 29.6569 51 28 51C26.3431 51 25 49.6569 25 48ZM82 44C81.4477 44 81 44.4477 81 45C81 45.5523 81.4477 46 82 46H84C84.5523 46 85 45.5523 85 45C85 44.4477 84.5523 44 84 44H82ZM81 50C81 49.4477 81.4477 49 82 49H84C84.5523 49 85 49.4477 85 50C85 50.5523 84.5523 51 84 51H82C81.4477 51 81 50.5523 81 50ZM10 66C10 63.2386 12.2386 61 15 61H85C87.7614 61 90 63.2386 90 66V76C90 78.7614 87.7614 81 85 81H15C12.2386 81 10 78.7614 10 76V66ZM74 67C73.4477 67 73 67.4477 73 68C73 68.5523 73.4477 69 74 69H76C76.5523 69 77 68.5523 77 68C77 67.4477 76.5523 67 76 67H74ZM15 71C15 69.3431 16.3431 68 18 68C19.6569 68 21 69.3431 21 71C21 72.6569 19.6569 74 18 74C16.3431 74 15 72.6569 15 71ZM45 71C45 69.3431 46.3431 68 48 68H65C66.6569 68 68 69.3431 68 71C68 72.6569 66.6569 74 65 74H48C46.3431 74 45 72.6569 45 71ZM73 73C73 72.4477 73.4477 72 74 72H76C76.5523 72 77 72.4477 77 73C77 73.5523 76.5523 74 76 74H74C73.4477 74 73 73.5523 73 73ZM28 68C26.3431 68 25 69.3431 25 71C25 72.6569 26.3431 74 28 74C29.6569 74 31 72.6569 31 71C31 69.3431 29.6569 68 28 68ZM81 68C81 67.4477 81.4477 67 82 67H84C84.5523 67 85 67.4477 85 68C85 68.5523 84.5523 69 84 69H82C81.4477 69 81 68.5523 81 68ZM82 72C81.4477 72 81 72.4477 81 73C81 73.5523 81.4477 74 82 74H84C84.5523 74 85 73.5523 85 73C85 72.4477 84.5523 72 84 72H82Z" fill="white"/>
</g>
</svg>
