<svg width="100" height="100" viewBox="0 0 100 100" fill="none" xmlns="http://www.w3.org/2000/svg">
<g opacity="0.8">
<path fill-rule="evenodd" clip-rule="evenodd" d="M72 7C74.7614 7 77 9.23858 77 12V82C77 84.7614 74.7614 87 72 87H67V90C67 91.1046 66.1046 92 65 92H57C55.8954 92 55 91.1046 55 90V87H46V90C46 91.1046 45.1046 92 44 92H36C34.8954 92 34 91.1046 34 90V87H29C26.2386 87 24 84.7614 24 82L24 12C24 9.23858 26.2386 7 29 7L72 7ZM71 25C71 26.1046 70.1046 27 69 27L32 27C30.8954 27 30 26.1046 30 25V15C30 13.8954 30.8954 13 32 13L69 13C70.1046 13 71 13.8954 71 15V25ZM53.6806 50.3856C54.5722 51.0376 54.7664 52.289 54.1144 53.1806L48.9403 60.2558H53.155C55.5367 60.2558 56.9687 62.8979 55.6686 64.8935L49.6757 74.0918C49.0728 75.0172 47.8337 75.2787 46.9082 74.6757C45.9828 74.0728 45.7213 72.8337 46.3243 71.9082L51.3099 64.2558H46.9702C44.5147 64.2558 43.0991 61.467 44.5486 59.4849L50.8856 50.8194C51.5376 49.9278 52.789 49.7336 53.6806 50.3856ZM44 34.5C44 33.1193 42.8807 32 41.5 32C40.1193 32 39 33.1193 39 34.5C39 35.8807 40.1193 37 41.5 37C42.8807 37 44 35.8807 44 34.5ZM50.5 32C51.8807 32 53 33.1193 53 34.5C53 35.8807 51.8807 37 50.5 37C49.1193 37 48 35.8807 48 34.5C48 33.1193 49.1193 32 50.5 32ZM62 34.5C62 33.1193 60.8807 32 59.5 32C58.1193 32 57 33.1193 57 34.5C57 35.8807 58.1193 37 59.5 37C60.8807 37 62 35.8807 62 34.5ZM6.5 41C7.32843 41 8 41.6716 8 42.5L8 47H13L13 42.5C13 41.6716 13.6716 41 14.5 41C15.3284 41 16 41.6716 16 42.5V47H17C18.1046 47 19 47.8954 19 49V55C19 57.7614 16.7614 60 14 60H12.5V68.5C12.5 71.2614 14.7386 73.5 17.5 73.5H18H20V77.5H18H17.5C12.5295 77.5 8.50001 73.4706 8.50001 68.5V60H7C4.23858 60 2 57.7614 2 55V49C2 47.8954 2.89543 47 4 47H5L5 42.5C5 41.6716 5.67157 41 6.5 41Z" fill="white"/>
</g>
</svg>
