<svg width="100" height="100" viewBox="0 0 100 100" fill="none" xmlns="http://www.w3.org/2000/svg">
<g opacity="0.8">
<path fill-rule="evenodd" clip-rule="evenodd" d="M37 17C37 14.2386 34.7614 12 32 12H20C17.2386 12 15 14.2386 15 17L15 74C15 74.0108 15 74.0216 15.0001 74.0323C15.0175 76.7789 17.2494 79 20 79H32C32.1726 79 32.3431 78.9912 32.5112 78.9742C35.0325 78.7181 37 76.5888 37 74L37 20L37 17ZM32 82C36.4183 82 40 78.4183 40 74V20L88 20C90.7614 20 93 22.2386 93 25V83C93 85.7614 90.7614 88 88 88H12C9.23858 88 7 85.7614 7 83L7 25C7 22.2386 9.23858 20 12 20H12L12 74C12 78.4183 15.5817 82 20 82H32ZM80 44C82.7614 44 85 41.7614 85 39V35C85 32.2386 82.7614 30 80 30L49 30C46.2386 30 44 32.2386 44 35V39C44 41.7614 46.2386 44 49 44L80 44ZM50 51.5C50 50.1193 48.8807 49 47.5 49C46.1193 49 45 50.1193 45 51.5C45 52.8807 46.1193 54 47.5 54C48.8807 54 50 52.8807 50 51.5ZM47.5 57C48.8807 57 50 58.1193 50 59.5C50 60.8807 48.8807 62 47.5 62C46.1193 62 45 60.8807 45 59.5C45 58.1193 46.1193 57 47.5 57ZM50 67.5C50 66.1193 48.8807 65 47.5 65C46.1193 65 45 66.1193 45 67.5C45 68.8807 46.1193 70 47.5 70C48.8807 70 50 68.8807 50 67.5ZM47.5 73C48.8807 73 50 74.1193 50 75.5C50 76.8807 48.8807 78 47.5 78C46.1193 78 45 76.8807 45 75.5C45 74.1193 46.1193 73 47.5 73ZM59 51.5C59 50.1193 57.8807 49 56.5 49C55.1193 49 54 50.1193 54 51.5C54 52.8807 55.1193 54 56.5 54C57.8807 54 59 52.8807 59 51.5ZM65.5 49C66.8807 49 68 50.1193 68 51.5C68 52.8807 66.8807 54 65.5 54C64.1193 54 63 52.8807 63 51.5C63 50.1193 64.1193 49 65.5 49ZM75.5 52H82.5C83.3284 52 84 51.3284 84 50.5C84 49.6716 83.3284 49 82.5 49H75.5C74.6716 49 74 49.6716 74 50.5C74 51.3284 74.6716 52 75.5 52ZM56.5 57C57.8807 57 59 58.1193 59 59.5C59 60.8807 57.8807 62 56.5 62C55.1193 62 54 60.8807 54 59.5C54 58.1193 55.1193 57 56.5 57ZM59 67.5C59 66.1193 57.8807 65 56.5 65C55.1193 65 54 66.1193 54 67.5C54 68.8807 55.1193 70 56.5 70C57.8807 70 59 68.8807 59 67.5ZM56.5 73C57.8807 73 59 74.1193 59 75.5C59 76.8807 57.8807 78 56.5 78C55.1193 78 54 76.8807 54 75.5C54 74.1193 55.1193 73 56.5 73ZM75.5 58H82.5C83.3284 58 84 57.3284 84 56.5C84 55.6716 83.3284 55 82.5 55H75.5C74.6716 55 74 55.6716 74 56.5C74 57.3284 74.6716 58 75.5 58ZM65.5 57C66.8807 57 68 58.1193 68 59.5C68 60.8807 66.8807 62 65.5 62C64.1193 62 63 60.8807 63 59.5C63 58.1193 64.1193 57 65.5 57ZM75.5 64H82.5C83.3284 64 84 63.3284 84 62.5C84 61.6716 83.3284 61 82.5 61H75.5C74.6716 61 74 61.6716 74 62.5C74 63.3284 74.6716 64 75.5 64ZM75.5 67H82.5C83.3284 67 84 67.6716 84 68.5C84 69.3284 83.3284 70 82.5 70H75.5C74.6716 70 74 69.3284 74 68.5C74 67.6716 74.6716 67 75.5 67ZM68 67.5C68 66.1193 66.8807 65 65.5 65C64.1193 65 63 66.1193 63 67.5C63 68.8807 64.1193 70 65.5 70C66.8807 70 68 68.8807 68 67.5ZM65.5 73C66.8807 73 68 74.1193 68 75.5C68 76.8807 66.8807 78 65.5 78C64.1193 78 63 76.8807 63 75.5C63 74.1193 64.1193 73 65.5 73Z" fill="white"/>
</g>
</svg>
