<svg width="100" height="100" viewBox="0 0 100 100" fill="none" xmlns="http://www.w3.org/2000/svg">
<g opacity="0.8">
<path fill-rule="evenodd" clip-rule="evenodd" d="M22.9393 7.93934C23.5251 7.35355 24.4749 7.35355 25.0607 7.93934L30.0607 12.9393C30.6464 13.5251 30.6464 14.4749 30.0607 15.0607L25.0607 20.0607C24.4749 20.6464 23.5251 20.6464 22.9393 20.0607C22.3536 19.4749 22.3536 18.5251 22.9393 17.9393L25.3787 15.5H22.6C20.8951 15.5 19.7066 15.5012 18.7814 15.5768C17.8736 15.6509 17.3521 15.7892 16.957 15.9905C16.1103 16.4219 15.4219 17.1103 14.9905 17.957C14.7892 18.3521 14.6509 18.8736 14.5768 19.7814C14.5012 20.7066 14.5 21.8951 14.5 23.6V38.5C14.5 39.3284 13.8284 40 13 40C12.1716 40 11.5 39.3284 11.5 38.5V23.6L11.5 23.5358C11.5 21.9101 11.5 20.5989 11.5867 19.5371C11.6761 18.4438 11.8648 17.4835 12.3175 16.5951C13.0365 15.1839 14.1839 14.0365 15.5951 13.3175C16.4835 12.8648 17.4438 12.6761 18.5371 12.5867C19.5989 12.5 20.9101 12.5 22.5358 12.5L22.6 12.5H25.3787L22.9393 10.0607C22.3536 9.47487 22.3536 8.52513 22.9393 7.93934ZM33.0433 36.5C33.7247 24.753 42.3579 15.1396 53.6401 12.9626C45.9044 19.9281 42.8444 28.07 42.1491 36.5H33.0433ZM42.1491 39.5H33.0433C33.2626 43.2798 34.3051 46.8387 35.9943 50H44.4851C43.1639 46.5969 42.4439 43.0744 42.1491 39.5ZM45.8267 53H49.2396H57H58C58.7111 53 59.3875 53.1485 60 53.416C60.2759 53.5366 60.5388 53.6813 60.7861 53.8476C62.1214 54.7453 63 56.27 63 58V87C63 89.7614 60.7614 92 58 92H12C9.23858 92 7 89.7614 7 87V58V54C7 51.2386 9.23858 49 12 49H28C30.419 49 32.4367 50.7178 32.9 53H37.8761H45.8267ZM65.9999 62.3792V60.4224C71.8107 54.0699 74.2408 46.8959 74.8508 39.5H83.9566C83.3294 50.3123 75.9655 59.3171 65.9999 62.3792ZM65.7551 56.0281C65.0391 53.2036 62.8205 50.978 60 50.252V39.5H71.84C71.3276 45.3072 69.607 50.9061 65.7551 56.0281ZM57 50H47.7275C46.2601 46.6228 45.4776 43.1015 45.1599 39.5H57V50ZM74.8508 36.5H83.9566C83.2752 24.753 74.642 15.1396 63.3598 12.9626C71.0955 19.9281 74.1555 28.07 74.8508 36.5ZM57 36.5H45.1599C45.8788 28.3527 48.9757 20.6155 57 14.0298V36.5ZM71.84 36.5H60V14.0298C68.0242 20.6155 71.1211 28.3527 71.84 36.5ZM78.9393 90.5607C79.5251 91.1464 80.4749 91.1464 81.0606 90.5607C81.6464 89.9749 81.6464 89.0251 81.0606 88.4393L78.6213 86H81.4H81.4642H81.4644C83.09 86 84.4011 86 85.4629 85.9133C86.5562 85.824 87.5165 85.6352 88.4049 85.1825C89.8161 84.4635 90.9635 83.3161 91.6825 81.9049C92.1352 81.0165 92.3239 80.0562 92.4133 78.9629C92.5 77.9012 92.5 76.59 92.5 74.9644V74.9642V74.9L92.5 67.5C92.5 66.6716 91.8284 66 91 66C90.1716 66 89.5 66.6716 89.5 67.5L89.5 74.9C89.5 76.6049 89.4988 77.7934 89.4232 78.7186C89.3491 79.6264 89.2108 80.1479 89.0095 80.543C88.5781 81.3897 87.8897 82.0781 87.0429 82.5095C86.6479 82.7108 86.1264 82.8491 85.2186 82.9232C84.2934 82.9988 83.1049 83 81.4 83H78.6213L81.0606 80.5607C81.6464 79.9749 81.6464 79.0251 81.0606 78.4393C80.4749 77.8536 79.5251 77.8536 78.9393 78.4393L73.9393 83.4393C73.3535 84.0251 73.3535 84.9749 73.9393 85.5607L78.9393 90.5607Z" fill="white"/>
</g>
</svg>
