<svg width="100" height="100" viewBox="0 0 100 100" fill="none" xmlns="http://www.w3.org/2000/svg">
<g opacity="0.8">
<path fill-rule="evenodd" clip-rule="evenodd" d="M73.9797 30C73.4555 17.2089 62.92 7 50.0002 7C37.0803 7 26.5449 17.2089 26.0206 30H20.0001C17.2387 30 15.0001 32.2386 15.0001 35L15.0001 47C15.0001 59.0668 21.1066 69.7073 30.3979 76H10.2974C7.53594 76 5.29736 78.2386 5.29736 81V87C5.29736 89.7614 7.53594 92 10.2974 92L88.2974 92C91.0588 92 93.2974 89.7614 93.2974 87V81C93.2974 78.2386 91.0588 76 88.2974 76H70.6023C79.8936 69.7074 86.0001 59.0668 86.0001 47L86.0001 35C86.0001 32.2386 83.7616 30 81.0001 30H73.9797ZM26.332 35C28.2363 46.3508 38.1082 55 50.0002 55C61.8922 55 71.764 46.3508 73.6683 35H80.0001C80.5524 35 81.0001 35.4477 81.0001 36V46C81.0001 62.5685 67.5687 76 51.0001 76H50.0001C33.4316 76 20.0001 62.5685 20.0001 46L20.0001 36C20.0001 35.4477 20.4478 35 21.0001 35H26.332ZM42.7434 83.5C42.7434 82.1193 41.6241 81 40.2434 81C38.8627 81 37.7434 82.1193 37.7434 83.5C37.7434 84.8807 38.8627 86 40.2434 86C41.6241 86 42.7434 84.8807 42.7434 83.5ZM51.7434 83.5C51.7434 82.1193 50.6241 81 49.2434 81C47.8627 81 46.7434 82.1193 46.7434 83.5C46.7434 84.8807 47.8627 86 49.2434 86C50.6241 86 51.7434 84.8807 51.7434 83.5ZM58.2434 81C59.6241 81 60.7434 82.1193 60.7434 83.5C60.7434 84.8807 59.6241 86 58.2434 86C56.8627 86 55.7434 84.8807 55.7434 83.5C55.7434 82.1193 56.8627 81 58.2434 81ZM50.0001 11C61.0458 11 70.0001 19.9543 70.0001 31C70.0001 42.0457 61.0458 51 50.0001 51C38.9544 51 30.0001 42.0457 30.0001 31C30.0001 19.9543 38.9544 11 50.0001 11ZM50.0001 14C59.389 14 67.0001 21.6112 67.0001 31C67.0001 40.3888 59.389 48 50.0001 48C40.6113 48 33.0001 40.3888 33.0001 31C33.0001 21.6112 40.6113 14 50.0001 14ZM50.0001 23.7143C54.0239 23.7143 57.2858 26.9762 57.2858 31C57.2858 35.0238 54.0239 38.2857 50.0001 38.2857C45.9763 38.2857 42.7144 35.0238 42.7144 31C42.7144 26.9762 45.9763 23.7143 50.0001 23.7143Z" fill="white"/>
</g>
</svg>
